<!-- Generated by IcoMoon.io -->
<svg version="1.1" xmlns="http://www.w3.org/2000/svg" width="1024" height="1024" viewBox="0 0 1024 1024">
<title></title>
<g id="icomoon-ignore">
</g>
<!--    Mer -->
    <path fill="#01415e" d="M996.914 657.698v306.108c0 24.952-20.24 45.192-45.192 45.192h-879.466c-24.93 0-45.172-20.24-45.172-45.192v-306.108c0-23.388 17.802-42.628 40.606-44.942 1.502-0.146 3.022-0.23 4.566-0.23h879.466c24.952 0 45.192 20.242 45.192 45.172z"></path>
<!--    Contour Mer -->
<path fill="#022435" d="M962.646 775.868c-6.608 18.468-23.556 30.392-43.15 30.392h-809.906c-19.178 0-35.978-11.57-42.836-29.476-6.838-17.926-2.022-37.772 12.256-50.55l127.3-113.708h283.678l58.658 50.758 58.47-50.758h204.758l136.742 112.478c15.134 12.446 20.638 32.416 14.030 50.864z"></path>
<!--    Violet-->
<path fill="#716499" d="M996.914 64.348v621.406h-969.828v-584.594c0-9.276 7.608-16.738 16.906-16.592 254.37 3.752 359.886 90.446 521.644-16.53 70.872-46.88 160.276-56.448 239.278-52.072 19.928 1.084 39.188 3.064 57.324 5.566 56.782 7.796 102.514 20.636 123.006 26.952 3.356 1.064 6.212 3.086 8.254 5.774 2.166 2.836 3.416 6.358 3.416 10.090z"></path>
<!--    Contour Violet Bas bas-->
<path fill="#584384" d="M900.174 685.754h-775.158l102.598-91.634 63.43-61.89c14.154-13.8 32.832-21.408 52.614-21.408 18.094 0 35.604 6.524 49.278 18.364l155.732 134.7 109.998-95.51c13.716-11.902 31.268-18.448 49.424-18.448 18.010 0 35.416 6.442 49.048 18.178l143.036 117.648z"></path>
<!--    Contour Violet haut (et bas haut)-->
<path fill="#584384" d="M996.914 64.348v430.864c-120.108 14.3-244.51 47.11-369.83 97.532-139.724 56.178-274.674 84.672-401.098 84.672-69.558 0-136.43-8.65-198.9-25.702v-527.186l18.594 13.758c63.14 46.694 138.974 70.372 225.354 70.372 90.154 0 191.292-26.14 300.604-77.708 94.468-44.546 168.594-81.712 233.274-114.98 19.928 1.084 39.188 3.064 57.324 5.566 56.782 7.796 102.514 20.636 123.006 26.952 3.356 1.064 6.212 3.086 8.254 5.774 2.168 2.832 3.418 6.354 3.418 10.086z"></path>
<!--    Rouge -->
<path fill="#fc6042" d="M996.914 64.348v219.766c-146.102 16.26-312.674 51.8-476.972 123.090-144.35 62.64-333.122 77.084-492.856 67.308v-311.088c97.096 71.81 273.068 130.176 557.894-4.19 120.922-57.032 209.052-102.264 277.258-137.702 56.782 7.796 102.514 20.636 123.006 26.952 3.356 1.064 6.212 3.086 8.254 5.774 2.166 2.836 3.416 6.358 3.416 10.090z"></path>
<!--    Orange-->
<path fill="#fcb941" d="M996.914 64.348v319.554c-146.102 16.26-312.674 51.8-476.972 123.088-189.69 82.316-359.26 80.752-492.856 50.674v-294.434c97.116 71.81 273.088 130.156 557.894-4.21 216.952-102.328 328.348-166.656 408.518-204.76 2.166 2.834 3.416 6.356 3.416 10.088z"></path>
<!--    Contour orange-->
<path fill="#d29b36" d="M996.914 91.364v292.538c-146.102 16.26-312.674 51.8-476.972 123.088-189.69 82.316-359.26 80.752-492.856 50.674v-160.38c65.514 42.566 135.492 63.43 212.012 63.43 151.502 0 323.698-79.46 526.458-242.926 64.058-51.634 144.312-95.012 231.358-126.424z"></path>
<!--    Vert-->
<path fill="#2cc990" d="M996.914 141.35v322.366c-111.874 13.008-239.82 43.024-381.502 100.014-45.526 18.302-89.132 33.060-130.802 44.754-120.922 33.894-225.458 41.898-313.132 35.77-54.74-3.794-102.91-13.090-144.392-25.014v-165.676c294.788 154.606 618.446-73.686 781.6-205.218 56.718-45.714 122.13-80.942 188.228-106.996z"></path>
<!--    Vert au dessus montagne-->
<path fill="#28b581" d="M484.61 608.482c-120.922 33.894-225.458 41.898-313.132 35.77l56.136-50.132 63.43-61.89c14.154-13.8 32.832-21.408 52.614-21.408 18.094 0 35.604 6.524 49.278 18.364l91.674 79.296z"></path>
<!--    Contour vert -->
<path fill="#28b581" d="M996.914 413.062v50.654c-111.874 13.008-239.82 43.024-381.502 100.014-260.206 104.64-457.502 93.134-588.324 55.51v-59.742c153.606 31.58 368.788 39.48 588.324-48.798 135.638-54.552 265.272-84.11 381.502-97.638z"></path>
<!--    Couleur montagne intérieur-->
<path fill="#caffff" d="M919.488 774.534h-809.904c-12.964 0-19.078-16.010-9.412-24.66l149.992-134.090 62.708-61.166c16.392-15.99 42.3-16.75 59.622-1.776l176.198 152.426 130.472-113.278c16.602-14.404 41.264-14.404 57.824 0.022l191.468 157.502c10.234 8.416 4.272 25.020-8.968 25.020z"></path>
<!--    Couleur montagne sommet enneigé-->
<path fill="#2cc990" d="M514.050 675.298c-12.12 29.928-68.206 35.362-101.328-3.68-39.486-46.53-29.61-29.61-101.834-16.074-38.662 7.254-54.44-16.306-60.722-39.762l62.71-61.166c16.392-15.99 42.3-16.75 59.622-1.776l141.552 122.458z"></path>
<path fill="#000" d="M893.352 592.486c8.286 0 15-6.716 15-15v-1.842c0-8.284-6.714-15-15-15s-15 6.716-15 15v1.842c0 8.284 6.716 15 15 15z"></path>
<path fill="#000" d="M235.166 162.276v1.842c0 8.284 6.714 15 15 15s15-6.716 15-15v-1.842c0-8.284-6.714-15-15-15s-15 6.716-15 15z"></path>
<path fill="#000" d="M112.054 387.722c-8.286 0-15 6.716-15 15v1.842c0 8.284 6.714 15 15 15s15-6.716 15-15v-1.842c0-8.284-6.716-15-15-15z"></path>
<path fill="#000" d="M996.914 311.758c8.286 0 15-6.716 15-15v-232.416c0-13.94-8.938-26.068-22.238-30.178-22.324-6.9-68.298-19.646-125.39-27.492-0.112-0.016-0.224-0.028-0.338-0.042-0.002 0-0.004 0-0.008 0-19.738-2.712-39.322-4.612-58.198-5.638-101.612-5.634-185.168 12.72-248.382 54.536-31.118 20.578-61.162 34.414-91.846 42.298-8.024 2.062-12.858 10.238-10.794 18.262 2.060 8.022 10.244 12.852 18.26 10.794 33.97-8.73 66.984-23.884 100.93-46.334 57.72-38.18 135.168-54.866 230.19-49.604 2.132 0.116 4.304 0.282 6.454 0.422-64.416 33.108-138.174 70.060-231.976 114.302-271.828 128.234-441.066 77.658-536.494 10.084v-54.58c0-0.442 0.158-0.82 0.468-1.126 0.326-0.324 0.83-0.476 1.21-0.476 86.662 1.274 155.568 12.25 216.362 21.934 54.178 8.632 100.958 16.084 147.128 14.56 8.28-0.274 14.77-7.208 14.496-15.488s-7.19-14.738-15.488-14.498c-43.288 1.436-88.764-5.814-141.416-14.202-61.792-9.844-131.826-21-220.634-22.304-8.652-0.152-16.624 3.102-22.71 9.1-6.072 5.982-9.416 13.972-9.416 22.5v862.648c0 33.184 26.996 60.18 60.18 60.18h106.498c8.286 0 15-6.716 15-15s-6.714-15-15-15h-106.498c-16.64 0-30.18-13.538-30.18-30.18v-263.056h90.552l-42.456 37.928c-9.088 8.116-12.152 20.716-7.808 32.1s15.024 18.74 27.208 18.74c0 0 514.68 0.008 514.738 0.008 0.052 0 0.104-0.008 0.154-0.008h295.008c12.452 0 23.21-7.574 27.412-19.294 4.204-11.72 0.704-24.406-8.912-32.316l-45.17-37.158h89.1v263.056c0 16.642-13.54 30.18-30.18 30.18h-710.486c-8.286 0-15 6.716-15 15s6.714 15 15 15h710.488c33.184 0 60.18-26.996 60.18-60.18v-604.57c0-8.284-6.714-15-15-15s-15 6.716-15 15v91.178c-121.196 15.388-246.306 48.794-372.090 99.38-53.396 21.468-106.502 38.886-157.988 51.84l-69.53-60.152c-23.4-20.242-57.748-19.216-79.89 2.386l-63.666 62.092-27.982 24.998c-58.914-1.14-115.576-8.896-168.676-23.13v-130.226c61.692 28.434 127.488 42.696 197.038 42.696 73.828 0 151.872-16.030 233.604-48.088 107.672-42.232 220.644-111.642 345.37-212.196 46.608-37.562 101.648-69.884 163.818-96.298v133.032c-0.006 8.28 6.71 14.996 14.994 14.996zM270.912 255.006c87.576 0 193.612-22.362 320.464-82.206 114.502-54.004 199.228-97.178 273.518-135.746 36.822 5.294 68.52 12.604 91.406 18.73-21.976 11.040-46.348 23.74-74.9 38.622-70.116 36.542-166.144 86.586-302.822 151.048-271.812 128.238-441.056 77.672-536.494 10.104v-63.72c55.32 34.958 130.424 63.168 228.828 63.168zM244.35 641.19c13.976 24.412 38.29 34.918 69.298 29.098 19.048-3.57 32.706-7.402 42.676-10.2 11.696-3.282 17.45-4.806 20.366-3.618 4.95 2.012 14.068 12.446 24.594 24.85 17.828 21.014 43.408 33.030 69.036 33.030 4.272 0 8.542-0.334 12.782-1.016 13.444-2.16 25.084-7.81 33.558-15.938l22.22 19.222c0.004 0.004 0.008 0.006 0.010 0.008l46.84 42.902h-473.844l132.464-118.338zM630.144 759.528l-58.912-53.96 117.772-102.26c10.88-9.446 27.28-9.434 38.148 0.024 0.106 0.092 0.21 0.182 0.318 0.27l113.848 93.65c0.066 0.056 0.132 0.11 0.198 0.164l75.508 62.114-286.88-0.002zM621.012 577.64c122.102-49.106 243.416-81.654 360.896-96.93v190.054h-125.57l-109.664-90.208c-22.088-19.070-55.294-19.038-77.338 0.104l-120.66 104.768-24.992-21.62c-0.056-0.046-0.108-0.096-0.164-0.142l-44.172-38.212c46.434-12.604 93.954-28.634 141.664-47.814zM323.352 565.356c10.898-10.63 27.804-11.136 39.318-1.174l131.102 113.416c-3.95 2.976-9.256 5.124-15.434 6.118-15.176 2.438-37.384-2.004-54.18-21.804-16.316-19.226-25.204-28.772-36.168-33.23-12.566-5.112-23.978-1.908-39.774 2.522-9.958 2.794-22.35 6.272-40.1 9.598-14.336 2.692-31.466 2.45-40.798-20.802l56.034-54.644zM178.544 659.75l-12.328 11.014h-124.134v-31.936c43.538 11.11 89.232 18.126 136.462 20.922zM799.272 236.668c-297.762 240.050-552.45 309.88-757.19 207.698v-152.728c55.32 34.95 130.428 63.158 228.816 63.158 87.584 0 193.612-22.36 320.476-82.212 137.214-64.712 233.548-114.918 303.888-151.578 33.846-17.64 61.782-32.196 86.65-44.468v54.69c-69.528 28.348-130.95 63.78-182.64 105.44z"></path>
<path fill="#000" d="M906.206 862.818c8.286 0 15-6.716 15-15s-6.714-15-15-15h-524.098c-8.286 0-15 6.716-15 15s6.714 15 15 15h524.098z"></path>
<path fill="#000" d="M338.15 915.916c8.286 0 15-6.716 15-15s-6.714-15-15-15h-56.562c-8.286 0-15 6.716-15 15s6.714 15 15 15h56.562z"></path>
<path fill="#000" d="M120.85 843.024c-8.286 0-15 6.716-15 15s6.714 15 15 15h26.79c8.286 0 15-6.716 15-15s-6.714-15-15-15h-26.79z"></path>
</svg>
