<svg id="Calque_1" data-name="Calque 1" xmlns="http://www.w3.org/2000/svg" xmlns:xlink="http://www.w3.org/1999/xlink" viewBox="0 0 436 245"><defs><style>.cls-1,.cls-10,.cls-11,.cls-12,.cls-13,.cls-14,.cls-15,.cls-16,.cls-17,.cls-18,.cls-19,.cls-2,.cls-20,.cls-21,.cls-22,.cls-23,.cls-24,.cls-25,.cls-26,.cls-27,.cls-28,.cls-29,.cls-3,.cls-30,.cls-31,.cls-32,.cls-33,.cls-34,.cls-35,.cls-36,.cls-37,.cls-38,.cls-39,.cls-4,.cls-40,.cls-41,.cls-42,.cls-43,.cls-44,.cls-45,.cls-46,.cls-47,.cls-48,.cls-5,.cls-6,.cls-7,.cls-72,.cls-73,.cls-74,.cls-75,.cls-76,.cls-77,.cls-78,.cls-79,.cls-8,.cls-80,.cls-81,.cls-82,.cls-83,.cls-9{opacity:0.11;}.cls-1{fill:url(#Aurora_Degrades);}.cls-2{fill:url(#Aurora_Degrades-2);}.cls-3{fill:url(#Aurora_Degrades-3);}.cls-4{fill:url(#Aurora_Degrades-4);}.cls-5{fill:url(#Aurora_Degrades-5);}.cls-6{fill:url(#Aurora_Degrades-6);}.cls-7{fill:url(#Aurora_Degrades-7);}.cls-8{fill:url(#Aurora_Degrades-8);}.cls-9{fill:url(#Aurora_Degrades-9);}.cls-10{fill:url(#Aurora_Degrades-10);}.cls-11{fill:url(#Aurora_Degrades-11);}.cls-12{fill:url(#Aurora_Degrades-12);}.cls-13{fill:url(#AurorasDegrades);}.cls-14{fill:url(#AurorasDegrades-2);}.cls-15{fill:url(#AurorasDegrades-3);}.cls-16{fill:url(#AurorasDegrades-4);}.cls-17{fill:url(#AurorasDegrades-5);}.cls-18{fill:url(#AurorasDegrades-6);}.cls-19{fill:url(#AurorasDegrades-7);}.cls-20{fill:url(#AurorasDegrades-8);}.cls-21{fill:url(#AurorasDegrades-9);}.cls-22{fill:url(#AurorasDegrades-10);}.cls-23{fill:url(#AurorasDegrades-11);}.cls-24{fill:url(#AurorasDegrades-12);}.cls-25{fill:url(#Aurora_Degrades-13);}.cls-26{fill:url(#Aurora_Degrades-14);}.cls-27{fill:url(#Aurora_Degrades-15);}.cls-28{fill:url(#Aurora_Degrades-16);}.cls-29{fill:url(#Aurora_Degrades-17);}.cls-30{fill:url(#Aurora_Degrades-18);}.cls-31{fill:url(#Aurora_Degrades-19);}.cls-32{fill:url(#Aurora_Degrades-20);}.cls-33{fill:url(#Aurora_Degrades-21);}.cls-34{fill:url(#Aurora_Degrades-22);}.cls-35{fill:url(#Aurora_Degrades-23);}.cls-36{fill:url(#Aurora_Degrades-24);}.cls-37{fill:url(#AurorasDegrades-13);}.cls-38{fill:url(#AurorasDegrades-14);}.cls-39{fill:url(#AurorasDegrades-15);}.cls-40{fill:url(#AurorasDegrades-16);}.cls-41{fill:url(#AurorasDegrades-17);}.cls-42{fill:url(#AurorasDegrades-18);}.cls-43{fill:url(#AurorasDegrades-19);}.cls-44{fill:url(#AurorasDegrades-20);}.cls-45{fill:url(#AurorasDegrades-21);}.cls-46{fill:url(#AurorasDegrades-22);}.cls-47{fill:url(#AurorasDegrades-23);}.cls-48{fill:url(#AurorasDegrades-24);}.cls-49{fill:url(#AurorasDegrades-25);}.cls-50{fill:url(#AurorasDegrades-26);}.cls-51{fill:url(#AurorasDegrades-27);}.cls-52{fill:url(#AurorasDegrades-28);}.cls-53{fill:url(#AurorasDegrades-29);}.cls-54{fill:url(#AurorasDegrades-30);}.cls-55{fill:url(#AurorasDegrades-31);}.cls-56{fill:url(#AurorasDegrades-32);}.cls-57{fill:url(#AurorasDegrades-33);}.cls-58{fill:url(#AurorasDegrades-34);}.cls-59{fill:url(#AurorasDegrades-35);}.cls-60{fill:url(#AurorasDegrades-36);}.cls-61{fill:url(#AurorasDegrades-37);}.cls-62{fill:url(#AurorasDegrades-38);}.cls-63{fill:url(#AurorasDegrades-39);}.cls-64{fill:url(#AurorasDegrades-40);}.cls-65{fill:url(#AurorasDegrades-41);}.cls-66{fill:url(#AurorasDegrades-42);}.cls-67{fill:url(#AurorasDegrades-43);}.cls-68{fill:url(#AurorasDegrades-44);}.cls-69{fill:url(#AurorasDegrades-45);}.cls-70{fill:url(#AurorasDegrades-46);}.cls-71{fill:url(#AurorasDegrades-47);}.cls-72{fill:url(#Aurora_Degrades-25);}.cls-73{fill:url(#Aurora_Degrades-26);}.cls-74{fill:url(#Aurora_Degrades-27);}.cls-75{fill:url(#Aurora_Degrades-28);}.cls-76{fill:url(#Aurora_Degrades-29);}.cls-77{fill:url(#Aurora_Degrades-30);}.cls-78{fill:url(#Aurora_Degrades-31);}.cls-79{fill:url(#Aurora_Degrades-32);}.cls-80{fill:url(#Aurora_Degrades-33);}.cls-81{fill:url(#Aurora_Degrades-34);}.cls-82{fill:url(#Aurora_Degrades-35);}.cls-83{fill:url(#Aurora_Degrades-36);}.cls-84{fill:#fff;}.cls-85{fill:none;stroke:#000;stroke-miterlimit:10;stroke-width:0.5px;}</style><linearGradient id="Aurora_Degrades" x1="22.58" y1="77.08" x2="208.65" y2="77.08" gradientUnits="userSpaceOnUse"><stop offset="0" stop-color="#69bfaf"/><stop offset="0.09" stop-color="#69bfaf"/><stop offset="0.73" stop-color="#8cffea"/><stop offset="0.99" stop-color="#69bfaf"/></linearGradient><linearGradient id="Aurora_Degrades-2" x1="26.58" y1="81.28" x2="209.35" y2="81.28" xlink:href="#Aurora_Degrades"/><linearGradient id="Aurora_Degrades-3" x1="12.46" y1="73.25" x2="206.21" y2="73.25" xlink:href="#Aurora_Degrades"/><linearGradient id="Aurora_Degrades-4" x1="16.27" y1="75.46" x2="206.44" y2="75.46" xlink:href="#Aurora_Degrades"/><linearGradient id="Aurora_Degrades-5" x1="24.78" y1="76.99" x2="209.16" y2="76.99" xlink:href="#Aurora_Degrades"/><linearGradient id="Aurora_Degrades-6" x1="14.65" y1="73.44" x2="206.21" y2="73.44" xlink:href="#Aurora_Degrades"/><linearGradient id="Aurora_Degrades-7" x1="16.32" y1="76.46" x2="207.08" y2="76.46" xlink:href="#Aurora_Degrades"/><linearGradient id="Aurora_Degrades-8" x1="24.3" y1="75.72" x2="208.01" y2="75.72" xlink:href="#Aurora_Degrades"/><linearGradient id="Aurora_Degrades-9" x1="12.46" y1="74.11" x2="206.75" y2="74.11" xlink:href="#Aurora_Degrades"/><linearGradient id="Aurora_Degrades-10" x1="19.53" y1="75.26" x2="206.7" y2="75.26" xlink:href="#Aurora_Degrades"/><linearGradient id="Aurora_Degrades-11" x1="25.15" y1="75.68" x2="209.12" y2="75.68" xlink:href="#Aurora_Degrades"/><linearGradient id="Aurora_Degrades-12" x1="14.26" y1="75.19" x2="206.36" y2="75.19" xlink:href="#Aurora_Degrades"/><linearGradient id="AurorasDegrades" x1="123.44" y1="56.85" x2="322.15" y2="56.85" xlink:href="#Aurora_Degrades"/><linearGradient id="AurorasDegrades-2" x1="126.06" y1="61.55" x2="322.31" y2="61.55" xlink:href="#Aurora_Degrades"/><linearGradient id="AurorasDegrades-3" x1="115.38" y1="51.72" x2="320.31" y2="51.72" xlink:href="#Aurora_Degrades"/><linearGradient id="AurorasDegrades-4" x1="118.28" y1="54.27" x2="320.34" y2="54.27" xlink:href="#Aurora_Degrades"/><linearGradient id="AurorasDegrades-5" x1="125.49" y1="57.12" x2="322.51" y2="57.12" xlink:href="#Aurora_Degrades"/><linearGradient id="AurorasDegrades-6" x1="117.15" y1="52.19" x2="320.18" y2="52.19" xlink:href="#Aurora_Degrades"/><linearGradient id="AurorasDegrades-7" x1="118.28" y1="55.22" x2="320.91" y2="55.22" xlink:href="#Aurora_Degrades"/><linearGradient id="AurorasDegrades-8" x1="125.15" y1="56.06" x2="321.4" y2="56.06" xlink:href="#Aurora_Degrades"/><linearGradient id="AurorasDegrades-9" x1="115.41" y1="52.55" x2="320.74" y2="52.55" xlink:href="#Aurora_Degrades"/><linearGradient id="AurorasDegrades-10" x1="120.94" y1="54.71" x2="320.42" y2="54.71" xlink:href="#Aurora_Degrades"/><linearGradient id="AurorasDegrades-11" x1="126.28" y1="56.15" x2="322.29" y2="56.15" xlink:href="#Aurora_Degrades"/><linearGradient id="AurorasDegrades-12" x1="116.78" y1="53.76" x2="320.36" y2="53.76" xlink:href="#Aurora_Degrades"/><linearGradient id="Aurora_Degrades-13" x1="319.7" y1="81.4" x2="428.02" y2="81.4" xlink:href="#Aurora_Degrades"/><linearGradient id="Aurora_Degrades-14" x1="321.81" y1="86.06" x2="428.87" y2="86.06" xlink:href="#Aurora_Degrades"/><linearGradient id="Aurora_Degrades-15" x1="312.52" y1="75.68" x2="424.99" y2="75.68" xlink:href="#Aurora_Degrades"/><linearGradient id="Aurora_Degrades-16" x1="315.06" y1="78.48" x2="425.12" y2="78.48" xlink:href="#Aurora_Degrades"/><linearGradient id="Aurora_Degrades-17" x1="321.57" y1="81.83" x2="428.64" y2="81.83" xlink:href="#Aurora_Degrades"/><linearGradient id="Aurora_Degrades-18" x1="314.09" y1="76.29" x2="425.04" y2="76.29" xlink:href="#Aurora_Degrades"/><linearGradient id="Aurora_Degrades-19" x1="315.05" y1="79.39" x2="425.63" y2="79.39" xlink:href="#Aurora_Degrades"/><linearGradient id="Aurora_Degrades-20" x1="321.12" y1="80.77" x2="427.24" y2="80.77" xlink:href="#Aurora_Degrades"/><linearGradient id="Aurora_Degrades-21" x1="312.55" y1="76.5" x2="425.21" y2="76.5" xlink:href="#Aurora_Degrades"/><linearGradient id="Aurora_Degrades-22" x1="317.39" y1="79.06" x2="425.82" y2="79.06" xlink:href="#Aurora_Degrades"/><linearGradient id="Aurora_Degrades-23" x1="322.21" y1="80.79" x2="428.11" y2="80.79" xlink:href="#Aurora_Degrades"/><linearGradient id="Aurora_Degrades-24" x1="313.75" y1="77.81" x2="424.75" y2="77.81" xlink:href="#Aurora_Degrades"/><linearGradient id="AurorasDegrades-13" x1="194.28" y1="41.67" x2="308.15" y2="41.67" xlink:href="#Aurora_Degrades"/><linearGradient id="AurorasDegrades-14" x1="196.79" y1="46.44" x2="308.05" y2="46.44" xlink:href="#Aurora_Degrades"/><linearGradient id="AurorasDegrades-15" x1="186.65" y1="36.16" x2="306.92" y2="36.16" xlink:href="#Aurora_Degrades"/><linearGradient id="AurorasDegrades-16" x1="189.38" y1="38.89" x2="306.7" y2="38.89" xlink:href="#Aurora_Degrades"/><linearGradient id="AurorasDegrades-17" x1="196.24" y1="42.06" x2="308.46" y2="42.06" xlink:href="#Aurora_Degrades"/><linearGradient id="AurorasDegrades-18" x1="188.33" y1="36.69" x2="306.74" y2="36.69" xlink:href="#Aurora_Degrades"/><linearGradient id="AurorasDegrades-19" x1="189.37" y1="39.84" x2="307.18" y2="39.84" xlink:href="#Aurora_Degrades"/><linearGradient id="AurorasDegrades-20" x1="195.82" y1="40.99" x2="307.31" y2="40.99" xlink:href="#Aurora_Degrades"/><linearGradient id="AurorasDegrades-21" x1="186.68" y1="37.04" x2="307.22" y2="37.04" xlink:href="#Aurora_Degrades"/><linearGradient id="AurorasDegrades-22" x1="191.88" y1="39.41" x2="306.66" y2="39.41" xlink:href="#Aurora_Degrades"/><linearGradient id="AurorasDegrades-23" x1="196.91" y1="41.06" x2="308.08" y2="41.06" xlink:href="#Aurora_Degrades"/><linearGradient id="AurorasDegrades-24" x1="187.96" y1="38.34" x2="306.8" y2="38.34" xlink:href="#Aurora_Degrades"/><linearGradient id="AurorasDegrades-25" x1="116.87" y1="38.03" x2="118.57" y2="38.03" xlink:href="#Aurora_Degrades"/><linearGradient id="AurorasDegrades-26" x1="109.4" y1="38.57" x2="128.14" y2="38.57" xlink:href="#Aurora_Degrades"/><linearGradient id="AurorasDegrades-27" x1="111.6" y1="37.79" x2="123.09" y2="37.79" xlink:href="#Aurora_Degrades"/><linearGradient id="AurorasDegrades-28" x1="112.11" y1="37.68" x2="124.09" y2="37.68" xlink:href="#Aurora_Degrades"/><linearGradient id="AurorasDegrades-29" x1="242.91" y1="89.62" x2="244.61" y2="89.62" xlink:href="#Aurora_Degrades"/><linearGradient id="AurorasDegrades-30" x1="235.43" y1="90.15" x2="254.18" y2="90.15" xlink:href="#Aurora_Degrades"/><linearGradient id="AurorasDegrades-31" x1="237.64" y1="89.33" x2="249.13" y2="89.33" xlink:href="#Aurora_Degrades"/><linearGradient id="AurorasDegrades-32" x1="238.15" y1="89.27" x2="250.13" y2="89.27" xlink:href="#Aurora_Degrades"/><linearGradient id="AurorasDegrades-33" x1="215.91" y1="35.62" x2="217.61" y2="35.62" xlink:href="#Aurora_Degrades"/><linearGradient id="AurorasDegrades-34" x1="208.43" y1="36.15" x2="227.18" y2="36.15" xlink:href="#Aurora_Degrades"/><linearGradient id="AurorasDegrades-35" x1="210.64" y1="35.37" x2="222.13" y2="35.37" xlink:href="#Aurora_Degrades"/><linearGradient id="AurorasDegrades-36" x1="211.15" y1="35.27" x2="223.13" y2="35.27" xlink:href="#Aurora_Degrades"/><linearGradient id="AurorasDegrades-37" x1="359.35" y1="132.62" x2="361.05" y2="132.62" xlink:href="#Aurora_Degrades"/><linearGradient id="AurorasDegrades-38" x1="351.88" y1="133.15" x2="370.62" y2="133.15" xlink:href="#Aurora_Degrades"/><linearGradient id="AurorasDegrades-39" x1="354.08" y1="132.37" x2="365.57" y2="132.37" xlink:href="#Aurora_Degrades"/><linearGradient id="AurorasDegrades-40" x1="354.59" y1="132.27" x2="366.57" y2="132.27" xlink:href="#Aurora_Degrades"/><linearGradient id="AurorasDegrades-41" x1="382.79" y1="89.62" x2="384.49" y2="89.62" xlink:href="#Aurora_Degrades"/><linearGradient id="AurorasDegrades-42" x1="375.32" y1="90.15" x2="394.06" y2="90.15" xlink:href="#Aurora_Degrades"/><linearGradient id="AurorasDegrades-43" x1="377.52" y1="89.37" x2="389.01" y2="89.37" xlink:href="#Aurora_Degrades"/><linearGradient id="AurorasDegrades-44" x1="67.4" y1="79.62" x2="69.1" y2="79.62" xlink:href="#Aurora_Degrades"/><linearGradient id="AurorasDegrades-45" x1="59.93" y1="80.15" x2="78.67" y2="80.15" xlink:href="#Aurora_Degrades"/><linearGradient id="AurorasDegrades-46" x1="62.13" y1="79.37" x2="73.62" y2="79.37" xlink:href="#Aurora_Degrades"/><linearGradient id="AurorasDegrades-47" x1="62.64" y1="79.27" x2="74.62" y2="79.27" xlink:href="#Aurora_Degrades"/><linearGradient id="Aurora_Degrades-25" x1="73.88" y1="120.27" x2="268.13" y2="120.27" xlink:href="#Aurora_Degrades"/><linearGradient id="Aurora_Degrades-26" x1="78.38" y1="123.32" x2="268.98" y2="123.32" xlink:href="#Aurora_Degrades"/><linearGradient id="Aurora_Degrades-27" x1="63.25" y1="118.42" x2="265.37" y2="118.42" xlink:href="#Aurora_Degrades"/><linearGradient id="Aurora_Degrades-28" x1="67.3" y1="120.17" x2="265.4" y2="120.17" xlink:href="#Aurora_Degrades"/><linearGradient id="Aurora_Degrades-29" x1="75.91" y1="119.45" x2="268.64" y2="119.45" xlink:href="#Aurora_Degrades"/><linearGradient id="Aurora_Degrades-30" x1="65.51" y1="117.77" x2="265.38" y2="117.77" xlink:href="#Aurora_Degrades"/><linearGradient id="Aurora_Degrades-31" x1="67.43" y1="121.57" x2="265.9" y2="121.57" xlink:href="#Aurora_Degrades"/><linearGradient id="Aurora_Degrades-32" x1="75.03" y1="118.01" x2="267.25" y2="118.01" xlink:href="#Aurora_Degrades"/><linearGradient id="Aurora_Degrades-33" x1="63.23" y1="119.81" x2="265.53" y2="119.81" xlink:href="#Aurora_Degrades"/><linearGradient id="Aurora_Degrades-34" x1="70.61" y1="118.7" x2="265.96" y2="118.7" xlink:href="#Aurora_Degrades"/><linearGradient id="Aurora_Degrades-35" x1="76.14" y1="117.8" x2="268.11" y2="117.8" xlink:href="#Aurora_Degrades"/><linearGradient id="Aurora_Degrades-36" x1="65.15" y1="120.62" x2="265" y2="120.62" xlink:href="#Aurora_Degrades"/></defs><title>Plan de travail 1</title><path class="cls-1" d="M28,48.85C34.65,46,40.91,43,48.25,46.41L45,44.54,50.32,48,46.65,45.2,50.8,60.48l-.95,2.86c-.94,2.72-2.1,5.37-3,8.1-1,3-1.82,5.91-1.49,9,.42,4.09,2.2,8.14,4.12,11.73a51.77,51.77,0,0,0,9.32,12.62,33.55,33.55,0,0,0,5.3,4.28,17.68,17.68,0,0,0,5.66,2.43,11.81,11.81,0,0,0,6.43-.19A16.53,16.53,0,0,0,83,107.12c3.34-3.23,6-7.12,9-10.65a64.89,64.89,0,0,1,5.87-6.32A27.55,27.55,0,0,1,103,85.3c2.69-2.13,5-3.53,8.61-3.93L109,81.05l3.89.73-4.34-1.32a12.41,12.41,0,0,1,5.21,9.5q.42,5.64.82,11.27a14.16,14.16,0,0,0,1.55,5.35c3.93,7.16,13.74,4.38,19.63,1.85C145.28,104.31,153,97,162,91.92a32,32,0,0,1,5.7-2.63A52,52,0,0,1,176,87.83a64.24,64.24,0,0,1,11.43-.45,45.44,45.44,0,0,1,20.59,5.79c1,.53.52-.27,0-.78a12.45,12.45,0,0,0-3.57-2.9c-1.66-.78-3.34-1.52-5-2.2a50.52,50.52,0,0,0-11.13-2.43,70.41,70.41,0,0,0-17.46.65,36,36,0,0,0-11.24,3.28,111.12,111.12,0,0,0-10.43,6.48c-6.65,4.32-13.86,9.88-22,10.93a12.39,12.39,0,0,1-5.74-.33l-4.11-2.76c-1.69-2-2.09-5-2.46-7.54l.13,3c.09-3.65.82-7.24.9-10.87.06-2.39-.69-5.31-2.95-6.52a12.68,12.68,0,0,0-4.81-1.34c-3.73-.2-7.21,2.37-9.9,4.6-5.63,4.64-10.37,10.47-15.12,16-2.2,2.53-4.65,5.49-8.12,6.33l-2.87.45a9.53,9.53,0,0,1-8.06-4.26,15.41,15.41,0,0,1-6.74-5.27,42.31,42.31,0,0,1-2.93-4,53.42,53.42,0,0,1-4-7.2,35.38,35.38,0,0,1-2.43-7,22.91,22.91,0,0,1,.35-10.25l-.85,2.44c2.67-5.78,8.08-12.41,6.11-19.19-.75-2.59-2.08-3.74-4-5.55a16.6,16.6,0,0,0-7.77-4.29c-6.49-1.48-13.22,1.45-19.11,3.83-.81.33,1.21,1,1.18,1,.87.35,1.75.69,2.64,1A4,4,0,0,0,28,48.85Z"/><path class="cls-2" d="M28.86,52.46c7.07-3.11,14.49-7,21.85-.72L49.3,50.25l2.6,4.36a15.07,15.07,0,0,1-1.18,9.69c-.83,1.94-1.69,3.86-2.6,5.76a40.52,40.52,0,0,0-3.31,9c-1.1,5,.34,9.91,2.51,14.41A57.67,57.67,0,0,0,56,106.59a36.32,36.32,0,0,0,6.39,5.87,20.94,20.94,0,0,0,5.77,2.93l3.21.67a8.71,8.71,0,0,0,5.29-.69c6.46-2.2,9.91-7.9,13.95-13C93.27,99,96,95.74,99,92.68c3.43-3.54,9.08-9.37,15-7.47l-1.83-1.07,1.9,3.93.17,1.88a36.5,36.5,0,0,1-.48,6.84,39.33,39.33,0,0,0,.32,8.6,13.6,13.6,0,0,0,1.62,5.46c1.76,3.05,5.13,4.23,8.47,4.41,5.7.3,11.56-2.33,16.4-5.14,5.69-3.32,10.88-7.35,16.31-11.06,4.52-3.09,9-5.91,14.39-6.94A69.94,69.94,0,0,1,185.45,91c8.57.15,15.17,1.88,23.42,6.25.6.32.55-.17.31-.61a5.16,5.16,0,0,0-1.8-2c-4-1.94-5.56-2.9-9.92-4A51.33,51.33,0,0,0,186.17,89a80.71,80.71,0,0,0-14.23.93,31.15,31.15,0,0,0-9.49,2.79c-6.36,3.13-11.87,7.83-17.84,11.6a47.69,47.69,0,0,1-11.35,5.74c-3,.94-6.17,1.78-9.38,1.36-3-.39-6-1.56-7.62-4.16A10.5,10.5,0,0,1,114.6,102c-.1-4.1,2-8,1.71-12.15-.16-2-.64-4.14-2.4-5.41a6.72,6.72,0,0,0-5.35-1c-2.44.51-4.39,2-6.31,3.52a60.76,60.76,0,0,0-6.89,6.63,85.74,85.74,0,0,0-6.16,7.16l-8.15,8.78a13.55,13.55,0,0,1-9.78,2.59,13,13,0,0,1-8-4.27,19.12,19.12,0,0,1-7.22-6A62.81,62.81,0,0,1,51.23,95a41.67,41.67,0,0,1-4.13-8.72A25.07,25.07,0,0,1,46,82.21l1.64-8.52c.75-1.33,1.53-2.65,2.32-4S51.6,67,52.33,65.63a16,16,0,0,0,1.85-6.21,12,12,0,0,0-3-8.19,15.09,15.09,0,0,0-5.91-4.14c-6.32-2.24-13,1.09-18.6,3.67C26,51.1,28.36,52.68,28.86,52.46Z"/><path class="cls-3" d="M25.37,47a56.31,56.31,0,0,1,6-2.36,28.61,28.61,0,0,1,6.07-1.62l-.4.07a13,13,0,0,1,8.88,1.3l-8.29-4.26,9.5,5.25L37.71,39,51.57,52.54,45,42.68,49.9,60.54,49,50.14l-.19,12.13.79-9.21a138.18,138.18,0,0,1-3.38,18.53,18.25,18.25,0,0,0-.3,3.3,24.07,24.07,0,0,0,1.54,8.25,49,49,0,0,0,12.6,19.63,23.31,23.31,0,0,0,7.6,4.91,11.31,11.31,0,0,0,11.73-2.3l2.86-2.86q4.23-5.55,9-10.66A54.9,54.9,0,0,1,104.44,81l-.35.15A9.6,9.6,0,0,1,108.53,80l-3.2-.27,3.88.52L98,77.69l15,7.84L104,77.6l8.34,10.56-4.85-8,5.54,12.27-2.54-8.26q1.72,6.11,3,12.33a23.72,23.72,0,0,0,.78,3.12,21.18,21.18,0,0,0,1.11,2.8c2.4,5,8,6,13,4.64,13.57-3.66,23.75-14.5,36.7-19.57l-.38.09,3-.69-.38.08,6.15-1-.39.06,6.2-.62-.39,0a70.2,70.2,0,0,1,14.11.86,22,22,0,0,1,5.37,1.34,29,29,0,0,1,7.55,3.19c1.39.67-2.75-3-2.1-2.4-1.54-1.31-3.11-2.59-4.69-3.85a16.64,16.64,0,0,0-2.55-1.86,43.34,43.34,0,0,0-11.34-2.65q-3-.22-6-.37a74.8,74.8,0,0,0-12.42.85,82.78,82.78,0,0,0-9.07,2.1,34.64,34.64,0,0,0-5.7,1.81c-3.9,1.61-7.53,3.86-11.38,5.6q-2.73,1.16-5.49,2.22a37,37,0,0,1-5,2l-2.49.66a8,8,0,0,1-3.7.85,18.53,18.53,0,0,1-3.45-.86,6.77,6.77,0,0,1-2.89-2.89c-1.41-2-2.42-4.16-3.91-6.09l.18.32L111.71,81a2,2,0,0,0-1.18-.7c-1.58-.6-3.17-1.15-4.78-1.68s-3.2-1.05-4.82-1.53A2,2,0,0,0,99.56,77a26.45,26.45,0,0,0-5.89,1.89,71.23,71.23,0,0,0-10.74,6.67,30.38,30.38,0,0,0-5,4.24q-2.69,2.61-5.27,5.31A1.91,1.91,0,0,1,71,96.76a19.71,19.71,0,0,0-2.51-.66,7.76,7.76,0,0,1-2.8-2.19,25.52,25.52,0,0,1-3.59-3.61A43.37,43.37,0,0,1,57.41,83a53.48,53.48,0,0,1-4-10.92A85.29,85.29,0,0,1,51.45,61l0,.37a119.45,119.45,0,0,0-1.41-13.59,2,2,0,0,0-.82-1.09c-.87-.8-1.75-1.59-2.65-2.36-1.12-1-2.24-1.93-3.38-2.87a16.3,16.3,0,0,0-2.45-1.86,26.51,26.51,0,0,0-8.64-1.49c-1.08,0-2.15.17-3.21.3a71.88,71.88,0,0,0-16.46,4.5,2.29,2.29,0,0,0,1.26.72c1.68.6,3.38,1.18,5.08,1.72s3.41,1.08,5.13,1.56A2.19,2.19,0,0,0,25.37,47Z"/><path class="cls-4" d="M25.62,48.65a73.34,73.34,0,0,1,7.94-3,14.6,14.6,0,0,1,12.67.58l-2.17-1.27,3.59,2.37-5.06-4.2,6.77,6-5.55-6,6.8,8.22L45.9,44.76,51.26,54l-3.75-7.29,3.68,10-2.43-7.56,1.51,8.69-.84-6.21.1,8.9.18-6.41L48.43,64.9l1.28-7.85-2.4,10.59,1.75-6.12Q47,67.76,45.28,74.08A16.41,16.41,0,0,0,45,79.49a26.89,26.89,0,0,0,1.42,6.05,47.78,47.78,0,0,0,6.25,12,42.83,42.83,0,0,0,7.89,8.78c2.75,2.27,5.83,4.17,9.45,4.58,4.35.49,7.82-1.7,10.72-4.71A55.34,55.34,0,0,0,87,98.62q4-4.68,8.3-9c3.62-3.5,8.89-8.81,14.45-7.87l-8.19-2.82,11.72,8.48-5.68-6.69,4.28,6.53-3.45-6.06,4.36,11-2.12-7.62,2.15,9.51-1-6.44q.8,6.42,1.66,12.83a18.93,18.93,0,0,0,.9,3.48,13.07,13.07,0,0,0,1.8,3.3c2.52,3,6.59,3.3,10.15,2.64a40.47,40.47,0,0,0,13-5.31c3.62-2.13,7.1-4.45,10.6-6.75,4-2.63,8.1-5.72,12.54-7.53l10.91-2.59a66.49,66.49,0,0,1,11.54-.59A52.83,52.83,0,0,1,196,88.65a37.86,37.86,0,0,1,10.13,4.17c1.21.61-1.92-2.68-1.43-2.18-1.15-1.17-2.31-2.33-3.49-3.46a11,11,0,0,0-1.94-1.67,38.47,38.47,0,0,0-10.93-3.08,36.35,36.35,0,0,0-6.15-.56,71.38,71.38,0,0,0-11.51.47A64.23,64.23,0,0,0,157,85.5a80.29,80.29,0,0,0-10,5c-2.92,1.58-5.85,3.08-8.83,4.55a57.92,57.92,0,0,1-6,2.79q-2.64,1-5.36,1.74a11.32,11.32,0,0,1-6.49-.57c-2.4-1.1-3.58-3.48-4.67-5.71l.14.3c-1.21-2.89-2.62-5.7-3.94-8.54l1.3,7.22L112,82.63c-.12-.91-2.53-1.59-3.24-1.93-1-.49-2.05-1-3.08-1.44a10.54,10.54,0,0,0-2.21-.83,15.7,15.7,0,0,0-5.74,1.34,45.13,45.13,0,0,0-8,4.91C84.16,88.9,79.54,94.13,74.54,99a3.72,3.72,0,0,1-2.91,1.75c-.84-.12-1.67-.28-2.5-.48-2.41-.53-4.38-2.51-6.14-4.14a38.32,38.32,0,0,1-7.2-9.49A47.73,47.73,0,0,1,51.33,75.6a40.34,40.34,0,0,1-1.1-13.32l-.8,2.39c.59-1.57,2.81-5.88,2.32-8.13a49.43,49.43,0,0,0-1.5-4.9,17.3,17.3,0,0,0-1.67-4.19,19.92,19.92,0,0,0-3.66-3.35,24.17,24.17,0,0,0-3.56-2.83A14.57,14.57,0,0,0,35.46,40c-6.54-.44-13.23,2.17-19.19,4.4a1.37,1.37,0,0,0,.85.72c1.21.61,2.43,1.2,3.67,1.75s2.47,1.1,3.73,1.6A1.36,1.36,0,0,0,25.62,48.65Z"/><path class="cls-5" d="M28.77,48a54.29,54.29,0,0,1,5.75-2.37,23.2,23.2,0,0,1,10-1.73l-1.09-.17,3.17.89-2.55-1,4.22,1.89L46,44.32l4.22,3.51L52.34,56c-.08,2.47-1.61,5.4-2.62,7.65-1.6,3.58-3.47,7-4.4,10.81a18,18,0,0,0,.62,10.11,47.9,47.9,0,0,0,7.15,13.56c4.84,6.56,11.53,13.62,20.3,13.5,8.08-.11,12.73-7.82,17.21-13.38a119.63,119.63,0,0,1,9.84-11c3.22-3.1,6.68-6.19,11.47-6.68l-2.66-.25,3.63.55L110,80l3.44,3.72.81,3.68a28.57,28.57,0,0,1-.28,5.46,43.16,43.16,0,0,0,.53,9.22,9.71,9.71,0,0,0,4.89,7.58c4,2.16,8.88,1.24,13-.15,10.15-3.45,18.32-10.78,27.2-16.51a34.34,34.34,0,0,1,11.36-5.15A45.76,45.76,0,0,1,185,87.12a27,27,0,0,1,11,.68,22.28,22.28,0,0,1,5.3,1.51,29.05,29.05,0,0,1,7.36,3.39c.57.29.55-.11.36-.47a6.52,6.52,0,0,0-2.46-1.93,58.82,58.82,0,0,0-10.36-4,59.46,59.46,0,0,0-5.93-1.09,65.82,65.82,0,0,0-20.34.83A27.56,27.56,0,0,0,163,88a42.76,42.76,0,0,0-5.68,3.09c-5.83,3.72-11.25,8.14-17.19,11.67a45.88,45.88,0,0,1-7.19,3.58,23.19,23.19,0,0,1-7.32,1.8l-3.08-.36-5.08-2.59a10.13,10.13,0,0,1-2.33-5.83c-.3-3,.35-5.81.89-8.79.48-2.7,1-6.41-.88-8.79s-5.73-2.54-8.55-1.75c-3.63,1-6.75,4-9.32,6.65s-4.78,5.2-7,7.94c-2.68,3.27-5.1,6.85-8.17,9.76-2,1.88-5,4.23-7.83,4.43a15.25,15.25,0,0,1-5.68-.76l-5.17-2.72-2.46-2a38.93,38.93,0,0,1-4.58-4.85,57,57,0,0,1-7.84-13,30.53,30.53,0,0,1-1.82-5.6,20,20,0,0,1,.42-9l-.48,1.3c1.41-2.72,3-5.35,4.44-8s3.09-5.8,3.38-9c.31-3.44-1.89-7.23-4.45-9.25a18.63,18.63,0,0,0-6-3,11.5,11.5,0,0,0-5.49-.46c-4.85.42-9.13,2.16-13.57,4-.7.3.86.82.84.81C26.44,47.55,28.06,48.33,28.77,48Z"/><path class="cls-6" d="M25.27,46.35a74.79,74.79,0,0,1,8-3l-.32.11a19.57,19.57,0,0,1,10.57-.61l-2.47-.76,4,1.51-6-2.86,8.11,4.24-7-4.34L49,46.69l-6.12-5,7.4,7.16L45,43.2l5,7-3.35-5.08L51,54l-2.87-6.67,2,7.9L49,49.72l.58,8.15-.13-5.79-.73,10,1-7.08q-1.23,6.73-3,13.34a21.85,21.85,0,0,0-1.07,5.77,24,24,0,0,0,1.5,8.52A47.09,47.09,0,0,0,61,103.26c2.67,2.24,5.65,4.13,9.18,4.6,4.19.54,7.55-1.44,10.42-4.28a48.61,48.61,0,0,0,6.26-7.31q3.93-4.62,8.26-8.88a40.46,40.46,0,0,1,9.09-6.88,9.46,9.46,0,0,1,4.41-1.2l-5.14-.25,6,.56-8.4-1.39,9.52,2.13L102,77.74l10.28,6.73L106,78.71l6.52,9.06-3.61-6.21,3.71,7.94L110,82.79l2.78,8.47-1.45-5.73q1.14,5.31,2.15,10.65a24.49,24.49,0,0,0,.7,3,18,18,0,0,0,1.29,3.23c2.17,4.06,6.64,5.16,10.93,4.46,6.65-1.09,12.51-4.66,18.14-8.17,6.72-4.19,13.14-8.91,20.54-11.86l-.31.12a76.94,76.94,0,0,1,17-2.21,46.49,46.49,0,0,1,8.5.41,42.74,42.74,0,0,1,15.63,5.07c.36.12.43,0,.22-.28a11.27,11.27,0,0,0-1.86-1.66c-1.24-1-2.51-2-3.78-2.92a10.83,10.83,0,0,0-2.08-1.37,43.64,43.64,0,0,0-11.18-2.9,64.26,64.26,0,0,0-11.85-.44A69.37,69.37,0,0,0,157.06,84a53.15,53.15,0,0,0-8.31,3.87c-3.35,1.77-6.7,3.5-10.14,5.08A92.13,92.13,0,0,1,128.88,97c-2.75.91-5.48,1.5-8.27.23s-4-4.52-5.34-7.1c-.32-.57-.66-1.13-1-1.68a29.8,29.8,0,0,1-3.66-9,1.44,1.44,0,0,0-1.07-.47c-1-.22-2-.4-3-.56-1.23-.22-2.47-.42-3.7-.61a11.93,11.93,0,0,0-2.6-.24,28.91,28.91,0,0,0-8.89,4.08,64.42,64.42,0,0,0-9.62,7.48q-3.94,3.89-7.73,7.9A3,3,0,0,1,71.64,99c-1-.16-2-.35-3-.58a6.62,6.62,0,0,1-2.39-1.53,40.56,40.56,0,0,1-6.48-6.68,47.25,47.25,0,0,1-5.79-10.69,47.94,47.94,0,0,1-2.89-10.92c-.2-1.72-.32-3.44-.38-5.17A59.6,59.6,0,0,0,50,52.06l.13,8a5,5,0,0,0,.94-3.52c-.14-.83-.29-1.65-.48-2.47-.63-3-1.45-5.88-2.27-8.82-.31-1.1-2.3-1.86-3.19-2.42s-2-1.29-3.08-1.91a11.07,11.07,0,0,0-2.23-1.18A28.77,28.77,0,0,0,27,39.55a80.84,80.84,0,0,0-12.35,4,1.5,1.5,0,0,0,1,.58c1.39.43,2.78.83,4.18,1.19s2.8.72,4.22,1A1.54,1.54,0,0,0,25.27,46.35Z"/><path class="cls-7" d="M26.22,50a53.37,53.37,0,0,1,6-2.34,26.89,26.89,0,0,1,6.07-1.6l-.35,0L42.31,46H42a12.85,12.85,0,0,1,7,3.25l-6.23-5.56,7.18,6.87-6-7,7.27,9.33L46,45.11l5.79,10.42L47.6,47.1l4,11.15-2.78-8.7,1.75,9.61-1.06-7.1.29,9.79V54.57l-.93,10,.92-7.06L47.58,69.11l1.63-6.91q-1.73,6.26-3.41,12.53a15.12,15.12,0,0,0-.65,3.79,23,23,0,0,0,1.5,8.63,48.91,48.91,0,0,0,13,19.88c2.94,2.66,6.69,5.36,10.81,5.62l3.13-.05a14.65,14.65,0,0,0,6.35-3.37A72.23,72.23,0,0,0,87.66,100q3.95-4.72,8.24-9.12c3.86-3.77,9.15-9,15.23-7.68l-9.55-3.94,12.3,9.69-6.63-8.63,6.36,14.26L110.8,85l2.45,10.65L112,88.26q1,6.93,1.86,13.87a12.76,12.76,0,0,0,.62,2.65,13.26,13.26,0,0,0,1.61,3.48c4.51,6.79,14.69,2.76,20.23-.07,7.31-3.72,13.84-8.91,20.77-13.25a41.28,41.28,0,0,1,8.84-4.42A66.53,66.53,0,0,1,174.31,89a67.61,67.61,0,0,1,11.55-.51l-.35,0,6,.56-.34,0a34,34,0,0,1,8.1,2,28.28,28.28,0,0,1,7.51,3.36c1.28.65-2.05-3-1.58-2.49-1.24-1.38-2.51-2.74-3.79-4.09a13.7,13.7,0,0,0-2.1-2c-4.46-1.65-6.49-2.54-11.27-3.15a67.21,67.21,0,0,0-17.64,0,81.32,81.32,0,0,0-9,1.89,27.15,27.15,0,0,0-5.71,1.76,106.17,106.17,0,0,0-10.14,5.3c-3.33,1.84-6.79,3.59-10.26,5.17a39.24,39.24,0,0,1-8.31,3,11.69,11.69,0,0,1-6.46-.56c-2.38-.94-3.6-3.55-4.65-5.69l.15.34c-1.22-2.89-2.64-5.69-4-8.52l1.82,10.16L112.65,84a1.45,1.45,0,0,0-.85-.81c-1.21-.75-2.45-1.46-3.7-2.14s-3.46-2.42-4.93-2.3c-6.32.52-11.7,4.71-16.43,8.63a133.66,133.66,0,0,0-9.85,9.49c-1,1-3.25,4.13-5.18,4.09a12.14,12.14,0,0,1-3.31-.65c-1.68-.6-3-2-4.3-3.09-6.78-5.65-11-14.21-13-22.66a31.35,31.35,0,0,1-.85-5,12.86,12.86,0,0,1,.16-5c.32-1,.82-1.88,1.17-2.84a15.33,15.33,0,0,0,1-5.28,1.76,1.76,0,0,0-.29-1.25q-1-2.15-2-4.25c-.69-1.41-1.4-2.8-2.15-4.18a1.79,1.79,0,0,0-.82-1l-8.2-4.79a1.44,1.44,0,0,0-1-.48,12.28,12.28,0,0,0-3-.31c-6.53-.16-12.78,2.12-18.8,4.36a1.6,1.6,0,0,0,.9.83q1.91,1.15,3.87,2.21T25,49.74A1.59,1.59,0,0,0,26.22,50Z"/><path class="cls-8" d="M27.62,46.53l3.78-1.67Q46,39,50.24,48.22c1.42,2.09,1.38,4.43-.13,7a16.22,16.22,0,0,1-1.89,8.29,68.42,68.42,0,0,0-3.55,8,17.42,17.42,0,0,0-.27,9.55,44.61,44.61,0,0,0,7.43,15.15c4.62,6.4,10.57,12.69,18.74,13.88,3.27.48,6.07-.67,8.73-2.41,4.23-2.77,6.77-6.9,10-10.81,2.64-3.26,5.34-6.49,8.23-9.55,3.55-3.75,7.75-7.73,13.23-8.32l-2.32,0,3.41.39-2.47-.59,2.53,2.33,1.51,7.52c-.06,1.4-.43,2.78-.47,4.17a57.93,57.93,0,0,0,.29,5.89,14.86,14.86,0,0,0,.57,3.58,13.89,13.89,0,0,0,.71,1.79,6.83,6.83,0,0,0,2.52,3.06c3.55,2.56,8,2.77,12.17,1.58,9.78-2.81,17.77-9.4,26-15.09,2.05-1.42,4.11-2.85,6.26-4.11a17.57,17.57,0,0,1,8.32-2.75A28.93,28.93,0,0,1,178,85.37a62.69,62.69,0,0,1,11.38.12,23.92,23.92,0,0,1,5.51.89,36.23,36.23,0,0,1,12.69,4.93c.52.27.42-.23.35-.48-.13-.5-1.5-1.24-1.95-1.46a65.21,65.21,0,0,0-10.38-4,56.35,56.35,0,0,0-17.17-1.53c-6.65.24-13,1.26-18.9,4.38A86.12,86.12,0,0,0,150.71,94c-3.66,2.57-7.26,5.19-11.06,7.54a36.53,36.53,0,0,1-13,5.4,7.68,7.68,0,0,1-5-.19,7.19,7.19,0,0,1-5.7-3.55c-2.24-3.51-2.43-7.06-1.68-11,.69-3.62,2.15-8.54-.4-11.86-1.22-1.6-2.67-1.88-4.61-2-3.26-.13-6.1,1.33-8.64,3.22-3.51,2.6-6.47,6.1-9.25,9.42q-3.21,3.92-6.3,7.92a29.77,29.77,0,0,1-5.33,5.93,11.89,11.89,0,0,1-4.67,2.52,5.64,5.64,0,0,1-4.49.33A12.23,12.23,0,0,1,65,105.43a15.48,15.48,0,0,1-5.18-3.63,49.92,49.92,0,0,1-11.62-17,32.8,32.8,0,0,1-2.4-8.47c-.57-4.21.76-7.59,2.73-11.12s4.73-7.56,4.78-11.64a11.89,11.89,0,0,0-5.21-9.7,18.25,18.25,0,0,0-6.69-2.53,14.73,14.73,0,0,0-5.4.16c-4.13.64-7.74,2.29-11.51,4-.63.28.73.7.71.7C25.79,46.37,27,46.81,27.62,46.53Z"/><path class="cls-9" d="M25.79,48.37a53.35,53.35,0,0,1,6-2.36,27.13,27.13,0,0,1,6.08-1.61l-.42,0,4.49-.19h-.42l4.87,1.56-3-1.71,4.2,2.63-9-7L51.37,51.42,43.63,42,51.3,53.25,45.06,42.7l5,19.51-1-11.75-.22,13.33.76-10.41L48,66.49l1.63-8.1Q48,65.8,46.17,73.18a14.31,14.31,0,0,0-.31,3.32,24.66,24.66,0,0,0,1.52,8.28,47.33,47.33,0,0,0,14,20.81c2.72,2.28,5.74,4.13,9.34,4.57,4.33.52,7.7-1.75,10.58-4.73A45,45,0,0,0,87.36,98a116.49,116.49,0,0,1,8-8.86,33.67,33.67,0,0,1,11.72-7.83l-.38.1,3.86.14L97.85,77.63,113.39,87l-9.3-9.42,9.25,12.88-5.7-10.08,5.71,13.78-2.65-9.42q1.92,7.4,3.26,14.9a18.2,18.2,0,0,0,.74,2.62,14.48,14.48,0,0,0,1.68,3.53c4.49,6.61,14.22,3,19.78.18,7.19-3.57,13.64-8.61,20.48-12.79a42.17,42.17,0,0,1,8.84-4.34,70.36,70.36,0,0,1,8.42-1.51,68.75,68.75,0,0,1,11.56-.58l-.41,0,6.08.52-.42,0a33.75,33.75,0,0,1,8.13,1.9,28.86,28.86,0,0,1,7.55,3.26c.42.2.43.12.24-.26l-.75-.86c-.95-.95-1.92-1.89-2.91-2.8-1.51-1.42-3-2.84-4.58-4.21a6.91,6.91,0,0,0-2.2-1.6,52.77,52.77,0,0,0-5.49-1.7,58.08,58.08,0,0,0-11.83-1.3,73.1,73.1,0,0,0-18.16,2.14,52,52,0,0,0-13,4.69c-3.18,1.71-6.49,3.26-9.81,4.65-2.57,1.07-5.07,2.33-7.69,3.25a31.46,31.46,0,0,0-4.36,1.36,6.21,6.21,0,0,1-3.62-.14,7.33,7.33,0,0,1-4.56-3.39,27,27,0,0,1-1.78-2.84A49.09,49.09,0,0,0,111,81.48a2.33,2.33,0,0,0-1.32-.72c-1.76-.6-3.52-1.17-5.3-1.7S100.84,78,99.05,77.5a2.36,2.36,0,0,0-1.5-.14,37.3,37.3,0,0,0-8.89,4,53.24,53.24,0,0,0-9,6.55q-3.51,3.52-6.91,7.16a1.57,1.57,0,0,1-1.2,1.47,1.31,1.31,0,0,1-1.64-.11,5,5,0,0,1-2.8-1.17c-1-1-2.09-2-3.19-3l-1.79-2a39.12,39.12,0,0,1-6-10C52,70.9,51.24,60.49,49.72,50.41l.77,10.71.07-11.85A2.35,2.35,0,0,0,49.7,48q-1.94-2-4-4t-4.06-3.83a2.35,2.35,0,0,0-1.27-.82A24.85,24.85,0,0,0,31.67,38c-6.7.38-13,2.4-19.21,4.71a2.39,2.39,0,0,0,1.28.86c1.73.81,3.47,1.57,5.24,2.31s3.51,1.47,5.29,2.16A2.49,2.49,0,0,0,25.79,48.37Z"/><path class="cls-10" d="M25.9,47.32c6.64-2.82,12.83-5.71,20.22-2.6l-3.67-2,5.79,3.49-4.19-3.05,5.05,4.3-2.85-2.77,4.15,5-2.35-3.08a18.78,18.78,0,0,1,.46,16.62l.92-3.54Q46.88,66.21,45,72.93a14.47,14.47,0,0,0-.38,5.32A28.16,28.16,0,0,0,46,84.18a47.72,47.72,0,0,0,6.29,12,43.71,43.71,0,0,0,8,8.84c2.75,2.28,5.86,4.25,9.49,4.71,4.36.55,8-1.4,11.08-4.33a43.45,43.45,0,0,0,6.68-7.75c2.74-3.21,5.56-6.33,8.49-9.37,3.83-3.79,7.89-7.49,13.44-8.25l-3.18-.19,4.33.55-5.16-1.17,5.32,1.74L107,79.48c8.93,5,3.88,17,7.89,24.84,3.65,7.12,13.18,4.54,18.93,2.15,10-4.13,18-11.74,27.5-16.71,4.06-2.14,8-2.88,12.59-3.45a64.7,64.7,0,0,1,11.47-.54,46.36,46.36,0,0,1,21.12,5.8c.9.44-1.21-1.77-.86-1.44A14,14,0,0,0,202,87.25a41.06,41.06,0,0,0-10.7-3.45,56.71,56.71,0,0,0-11.56-1,43.73,43.73,0,0,0-8.85.75,76.24,76.24,0,0,0-8.87,1.7A45.26,45.26,0,0,0,152.2,90c-3.6,2.15-7.12,4.41-10.74,6.51a70.83,70.83,0,0,1-10.05,5.11c-3.21,1.22-7.71,2.19-11,.64-4.62-2.17-5.75-7.44-6.84-11.94l.13,3.84a76.51,76.51,0,0,0,.29-8.35,11.94,11.94,0,0,0-.78-3.49c-1-2.51-3.48-2.87-5.82-3.38A10.41,10.41,0,0,0,100,80.17c-5.1,2.68-9.24,6.82-13.2,10.94l-4.54,4.82a25.16,25.16,0,0,1-6.12,6.35,7.27,7.27,0,0,1-5.54,1.48c-4.18-.45-7.57-3.69-10.38-6.56A44.78,44.78,0,0,1,50.9,82.34,21.85,21.85,0,0,1,49.38,77a18.71,18.71,0,0,1-1.14-6.36,43.1,43.1,0,0,1,1.13-7.9l-1.32,3.51c2.25-4.83,5.59-10.44,3.59-15.92C50.42,47,48,45.1,45.3,43.26,37.56,38.06,27.44,42,19.73,45c-.89.34,1.56,1.06,1.44,1,1,.35,2,.68,3.07,1A4.76,4.76,0,0,0,25.9,47.32Z"/><path class="cls-11" d="M28.43,46.25a31.26,31.26,0,0,1,7.62-2.74,16.54,16.54,0,0,1,7.86-1.25l-2.17-.42q13,11.16,6.83,21.94-1.49,2.91-2.89,5.87a18,18,0,0,0-1.36,9c.53,4.2,2.37,8.22,4.39,11.89A54.47,54.47,0,0,0,57,102c4.47,4.63,10.79,9.18,17.66,8a17.27,17.27,0,0,0,7.24-3.69A97.78,97.78,0,0,0,94.62,91.21c4.46-5.1,9.67-11.7,17-12.43h-2.19l3.33.4-2.31-.52a11.68,11.68,0,0,1,2.37,2.59c1.43,2.22,1.43,5.17,1.13,7.68a31.66,31.66,0,0,0-.55,5.21c.09,1.8.13,3.62.32,5.41a13.18,13.18,0,0,0,2.19,6.12c1.94,2.87,6.78,4,9.93,3.69,5.77-.59,11.31-3.4,16.19-6.37,4.31-2.63,8.38-5.64,12.48-8.57,4.94-3.52,9.73-6.85,15.72-8.22A62.52,62.52,0,0,1,184.64,85c8.7.11,15.29,1.8,23.72,6.18.37.18.79.36.76-.2s-1.3-1.08-1.65-1.25c-4.27-2.1-5.62-3-10.26-4.19a52.41,52.41,0,0,0-11.94-1.81,67,67,0,0,0-17.64,1.55,29.31,29.31,0,0,0-4.2,1.34c-5.73,2.34-10.59,6.39-15.55,10a73.66,73.66,0,0,1-14.64,8.81c-3.3,1.38-7.22,2.51-10.81,1.72q-4.59-.33-6.2-3.93a11.42,11.42,0,0,1-1.48-3l-.31-6c.27-1.36.56-2.71.86-4.06.76-3.54,1.5-7.67-1.07-10.71-1-1.18-2.41-1.33-3.93-1.37a13.49,13.49,0,0,0-8.58,3.12,56.11,56.11,0,0,0-9,9.25c-3.44,4.21-6.41,8.89-10.27,12.73-2.59,2.59-5.71,5-9.53,4.9a11.76,11.76,0,0,1-4.43-.66l-7.88-4.76A37.26,37.26,0,0,1,53.78,95a54.54,54.54,0,0,1-5.22-9,28.16,28.16,0,0,1-2.79-8.63l.12-5.17a56.84,56.84,0,0,1,4.67-9.84c1.77-3.21,3.58-6.48,3.22-10.26a13.24,13.24,0,0,0-1-4.08A9.46,9.46,0,0,0,49,43.79c-7.34-5.17-16.36-1.63-23.73,1.53-.64.27.77.69.72.67A4.23,4.23,0,0,0,28.43,46.25Z"/><path class="cls-12" d="M25.31,49.07a53.39,53.39,0,0,1,6-2.34,27.6,27.6,0,0,1,6.09-1.6H37L41.49,45h-.38a13,13,0,0,1,7.07,3.14l-6.85-5.86,7.77,7.08L42.45,41.9l7.94,9.68L44.7,43.37l6.39,10.89-4.62-9,4.59,11.7L48,47.56l2.5,12.08L48.9,50l.62,12.44-.09-10-1,12.71,1.26-9.78L47.39,67.79l1.9-7.62q-2,7.13-3.86,14.27a12.83,12.83,0,0,0-.37,3.31,24,24,0,0,0,1.49,8.3A47.21,47.21,0,0,0,60.7,106.88c2.76,2.28,5.83,4.12,9.47,4.5,4.39.45,7.82-1.91,10.68-5A54.64,54.64,0,0,0,87,98.8q3.81-4.67,8.06-9A33.31,33.31,0,0,1,106.69,82l-.34.09,3.87.14-10.66-4,13.55,9.61-7.55-9.08,7,11.86-3.94-8.79L113,95.25l-1.82-8.92q1.25,7.24,2.28,14.53a15.16,15.16,0,0,0,.68,2.65,13.63,13.63,0,0,0,1.63,3.53c4.49,6.7,14.48,2.7,20-.11,7.18-3.68,13.61-8.78,20.46-13A41.41,41.41,0,0,1,165,89.55a77.72,77.72,0,0,1,20-2.06l-.37,0,6,.54-.37,0,5.86,1.14-.36-.08a38.69,38.69,0,0,1,10.21,4.19c.4.2.33.11.25-.24l-.61-.83c-.79-.9-1.6-1.79-2.42-2.66-1.27-1.35-2.54-2.7-3.85-4a5.77,5.77,0,0,0-1.89-1.52,46.57,46.57,0,0,0-5.38-1.81,56.86,56.86,0,0,0-11.69-1.48,71.54,71.54,0,0,0-24,3.43c-4,1.3-7.57,3.37-11.28,5.24S137.74,93,134,94.72a31.54,31.54,0,0,1-5.4,2,10.1,10.1,0,0,1-4.22,1,7.86,7.86,0,0,1-6.82-3.65c-1.34-1.9-2.24-4.06-3.47-6s-2.37-3.89-3.51-5.86a1.78,1.78,0,0,0-1.08-.72c-1.46-.63-2.93-1.21-4.42-1.76s-3-1.11-4.47-1.61a1.71,1.71,0,0,0-1.28-.17,31.61,31.61,0,0,0-8.87,4,54.64,54.64,0,0,0-9.12,7q-3.87,3.9-7.62,7.92a2.17,2.17,0,0,1-1.61,1.59C70.6,99,68.3,98,67,97.16a31.44,31.44,0,0,1-5.29-5,40.23,40.23,0,0,1-6.36-10.07,52.35,52.35,0,0,1-2.94-8.26A55,55,0,0,1,50.79,63l0,.38A18.41,18.41,0,0,1,52,55.32,2,2,0,0,0,51.62,54q-1.07-2.3-2.24-4.55c-.76-1.52-1.56-3-2.38-4.49a2,2,0,0,0-.88-1.06A22.68,22.68,0,0,0,33.3,39a39.65,39.65,0,0,0-5.09.48c-4.83.65-9.4,2.38-13.95,4.07a1.8,1.8,0,0,0,1,.85q2.15,1.18,4.33,2.27T24,48.75A1.91,1.91,0,0,0,25.31,49.07Z"/><path class="cls-13" d="M127.64,22.44,131.78,24l-2.65-2.57,3.58,3.79-2.28-2.82L134,27.48l-1.88-3L135,30l-1.45-3.11q2.63,10.5,4.31,21.17a25.73,25.73,0,0,0,2.73,7.79c2.56,4.42,6.76,7.75,11.12,10.25,12.38,7.11,27.52,7.9,41.42,6.76,9.22-.76,18.31-2.51,27.49-3.55a169.23,169.23,0,0,1,37.24-.22,132.52,132.52,0,0,1,34.51,8.27A107.17,107.17,0,0,1,307.92,85a96.69,96.69,0,0,1,14,10.15c.74.59-.39-1.79-.21-1.45-.53-1-1.17-2.65-2.13-3.36l-7.11-5.31A80.41,80.41,0,0,0,301,78.41a115.74,115.74,0,0,0-16.32-6.78,158.67,158.67,0,0,0-63.26-6.45c-8.35.84-16.65,2.21-25,3l-6.8.57-13.23-.22a67,67,0,0,1-13-2.29,29.18,29.18,0,0,1-5-1.68A20.07,20.07,0,0,1,150,59.3a16.51,16.51,0,0,1-7.44-6.24,12.76,12.76,0,0,1-2.95-5.32,58.77,58.77,0,0,1-2.54-10.65,43.08,43.08,0,0,0-1.55-7.88,18.55,18.55,0,0,0-4-6.52,16.58,16.58,0,0,0-2.62-2.41,11.93,11.93,0,0,0-5.22-1.83c-.92-.16.89,1.52.71,1.35.66.63,1.35,1.24,2,1.83A3.7,3.7,0,0,0,127.64,22.44Z"/><path class="cls-14" d="M128.15,26.45l7.47,12.13L136.77,48c.2,1.47.37,3,.66,4.42a26.6,26.6,0,0,0,1.95,5.93,22.78,22.78,0,0,0,5.68,7.36,40.4,40.4,0,0,0,14.21,8,74.4,74.4,0,0,0,27,3.61c9.56-.37,19-1.93,28.44-3.25a182,182,0,0,1,34.59-1.72A138,138,0,0,1,288.66,80,107,107,0,0,1,304.42,87a49,49,0,0,1,7.34,4.46A72.52,72.52,0,0,1,322,99.3c.61.5,0-1.31.07-1.12a6.12,6.12,0,0,0-1.35-2.57A72.79,72.79,0,0,0,310.23,88a51,51,0,0,0-7.46-4.35,113.63,113.63,0,0,0-20.07-8.27,150.4,150.4,0,0,0-44.39-6,187,187,0,0,0-22.07,1.46c-5.74.72-11.46,1.61-17.21,2.19-10.61,1.08-21.77,1.69-32.27-.8l-5.37-1.44-14-7a24.21,24.21,0,0,1-9.22-14,101,101,0,0,1-1.54-11.88,24.45,24.45,0,0,0-1.3-5.87,16.21,16.21,0,0,0-2.51-4.46,14.16,14.16,0,0,0-1.86-2c-1.42-1.2-2.81-1.41-4.6-1.73-.66-.12.11,1,.12,1C126.77,25.18,127.52,26.33,128.15,26.45Z"/><path class="cls-15" d="M125.36,19.85l2.62.43-.37-.1,2.14,1.26-4.52-4.22,5.48,5.41-5.37-6.11,6.75,8.25-5.78-8.27,6.86,10.7-4.83-8.79,5.71,11.32-3.65-9.16a87.57,87.57,0,0,1,6.16,20.36,41.9,41.9,0,0,0,2,7.69,23.44,23.44,0,0,0,4.75,7.88A37.14,37.14,0,0,0,156,65.19a60.59,60.59,0,0,0,18.55,4.47,113.83,113.83,0,0,0,23.56-.41c6.8-.75,13.56-1.81,20.36-2.52a192.74,192.74,0,0,1,28.12-.85,157.22,157.22,0,0,1,18.12,1.92,136.18,136.18,0,0,1,17.39,4l-.37-.12,8.69,3-.36-.13A109.71,109.71,0,0,1,305.79,82,98.83,98.83,0,0,1,320,92c.35.27.3.2.31-.18l-.39-.94c-.54-1.06-1.1-2.11-1.69-3.15-.89-1.61-1.79-3.22-2.74-4.8A5.54,5.54,0,0,0,314,81a127.64,127.64,0,0,0-15.61-9.21,132.67,132.67,0,0,0-25.51-9.23,176.14,176.14,0,0,0-36.35-5q-9.27-.39-18.54.11-6.35.69-12.7,1.13c-7.25.53-14.55,1.25-21.83,1a70.88,70.88,0,0,1-20.27-3.46,42.76,42.76,0,0,1-15.54-9,34.32,34.32,0,0,1-6-7.26q-1.72-3.69-3.57-7.32l.16.33c-2.91-6.58-6.16-13.33-12.14-17.71a22.21,22.21,0,0,0-5.25-3.07,18.82,18.82,0,0,0-5.49-1.05,2,2,0,0,0,.85,1.12q1.9,1.77,3.89,3.45c1.31,1.14,2.65,2.24,4,3.32A2,2,0,0,0,125.36,19.85Z"/><path class="cls-16" d="M125.59,21.85l5.48,3-3.95-5.46L132.39,27,129,21.23l4.35,8.33-2.73-6.17,3.49,8.8-2-6.41a106.53,106.53,0,0,1,4,17.68A40.72,40.72,0,0,0,138,51.18,22.19,22.19,0,0,0,142.7,59c9.35,10.4,24.7,13,38,13.36,8.22.21,16.32-.75,24.46-1.84,10.79-1.43,21.49-2.84,32.4-2.88a154.78,154.78,0,0,1,36.16,3.93A113.27,113.27,0,0,1,305.9,84.24,98,98,0,0,1,320,94.3c1,.81-.84-3.08-.63-2.61q-1-2.32-2.16-4.6A11.83,11.83,0,0,0,316,84.78c-6-4.12-9-6.28-15.51-9.62A131.51,131.51,0,0,0,284,68.24,147,147,0,0,0,248.42,61a173.3,173.3,0,0,0-32.61,0c-8.05.8-16.12,1.69-24.19,2.11a94.13,94.13,0,0,1-12.68,0q-4.11-.42-8.19-1.16a51.94,51.94,0,0,1-15.94-5.28,38.52,38.52,0,0,1-7.66-5.31A33.9,33.9,0,0,1,141,44.07l.14.3c-1.6-3.67-3.08-7.35-4.47-11.11-1.48-4-3-7.89-5.66-11.28a24.12,24.12,0,0,0-6.1-5.78,13.71,13.71,0,0,0-6.65-2.07,1.49,1.49,0,0,0,.55,1c.92,1.06,1.86,2.09,2.83,3.1C122.46,19.1,124.23,21.62,125.59,21.85Z"/><path class="cls-17" d="M128.32,22l2.47.48-.85-.43,2.48,1.67-2.31-2A20.82,20.82,0,0,1,136,34.75q.69,6.77,1.85,13.46a22.44,22.44,0,0,0,2.8,7.7,28.29,28.29,0,0,0,6.71,7.22,46.22,46.22,0,0,0,14.78,7.1,78.56,78.56,0,0,0,24.14,2.71c9.48-.24,18.82-1.92,28.19-3.21A194.17,194.17,0,0,1,240,67.67a151.41,151.41,0,0,1,36.06,4,115.76,115.76,0,0,1,32,12.84A94.49,94.49,0,0,1,322,94.66c.42.34.56.13.51-.32A5.49,5.49,0,0,0,321,92a73.65,73.65,0,0,0-10.65-7.77,28,28,0,0,0-4-2.53,107.8,107.8,0,0,0-15.57-7.42A140.51,140.51,0,0,0,255.65,66,167.83,167.83,0,0,0,228,65.53c-7.62.42-15.2,1.69-22.76,2.72-11.79,1.59-23.57,2.81-35.42.89a60.31,60.31,0,0,1-13.05-3.61,34.86,34.86,0,0,1-12.61-8.45l-3-3.78a34.27,34.27,0,0,1-3.71-13.45c-.33-2.65-.4-5.32-.81-8a16.09,16.09,0,0,0-4.3-9.13,13.34,13.34,0,0,0-1.87-1.56,10.87,10.87,0,0,0-4.77-1.78c-.75-.15.5,1.1.38,1A5.64,5.64,0,0,0,128.32,22Z"/><path class="cls-18" d="M124.9,19.19a7,7,0,0,1,4.78,1.7L126,17.72l4.76,4.55-5.36-5.94,6.73,8.09-4.56-6.37,5.63,8.82-3.74-6.82,4.59,9.38-2.75-7.11a84.87,84.87,0,0,1,5.09,18.16,43.28,43.28,0,0,0,2,7.7,26,26,0,0,0,8.39,11.22C158,68.34,173.67,70.05,187.5,69.5c8.12-.32,16.12-1.5,24.16-2.52a196.81,196.81,0,0,1,34.82-1.7A141.3,141.3,0,0,1,290,74a108.48,108.48,0,0,1,15.7,7.47,98.8,98.8,0,0,1,14.2,10c1,.78-1-2.88-.74-2.35-.75-1.35-1.52-2.68-2.31-4a10.45,10.45,0,0,0-1.36-2,82.37,82.37,0,0,0-11.43-7.22,57.76,57.76,0,0,0-8-4.06,139.13,139.13,0,0,0-21.17-7.62,160.72,160.72,0,0,0-27.31-4.65q-6.91-.64-13.84-.67-7-.24-13.91.2c-5.32.4-10.63,1-15.94,1.48-6.29.54-12.76,1.27-19.09,1.13a91.93,91.93,0,0,1-14.22-1.48,46.93,46.93,0,0,1-21.3-9.15,31.72,31.72,0,0,1-9.34-12c-1.5-3.15-2.66-6.44-4.07-9.63-2.16-4.93-5.71-9.15-9.43-13A12,12,0,0,0,122.85,14a16,16,0,0,0-5.7-1.22,1.35,1.35,0,0,0,.66.91c.72.64,1.46,1.25,2.21,1.85.93.76,1.87,1.51,2.82,2.24A11.05,11.05,0,0,0,124.9,19.19Z"/><path class="cls-19" d="M126.21,23.43l2.62.46-.34-.13,3.76,3.29-5-7.14,5.62,8.65L129.2,21.8l4.69,9.3L130.82,24l3.8,9.78-2.27-7.37a108.27,108.27,0,0,1,4.19,18.77,39.52,39.52,0,0,0,1.8,7.72,25.26,25.26,0,0,0,8.45,11.33,44.61,44.61,0,0,0,14.39,7.11,76.5,76.5,0,0,0,23.57,2.84c9.35-.15,18.58-1.75,27.83-3a200.92,200.92,0,0,1,25.58-1.94,154.88,154.88,0,0,1,36.16,4,125.11,125.11,0,0,1,16.86,5.24,108.11,108.11,0,0,1,15.64,7.62l-.32-.19,7.57,4.94-.31-.21L320.59,96c.36.28.23.22.32-.14l-.3-1c-.44-1.08-.9-2.16-1.38-3.23-.74-1.65-1.48-3.3-2.28-4.92a5,5,0,0,0-1.26-2,108.3,108.3,0,0,0-15.25-9.43A92.47,92.47,0,0,0,288.13,70,142.22,142.22,0,0,0,262,63a176.39,176.39,0,0,0-32-2.57l-9.31.28c-5.38.57-10.75,1.08-16.14,1.55-6.4.57-12.86,1.24-19.29,1.23a87.52,87.52,0,0,1-16.77-1.77,52.06,52.06,0,0,1-13.53-4.84,38.07,38.07,0,0,1-7.65-5.29,33.63,33.63,0,0,1-6.12-7.23l.15.34-1.65-3.8.15.34c-2.86-6.86-4.67-14.47-9.63-20.19a21.77,21.77,0,0,0-6.35-5.35,14,14,0,0,0-5.53-1.39,1.75,1.75,0,0,0,.61,1.15c1,1.25,2,2.47,3.07,3.67s2.1,2.41,3.2,3.57A1.74,1.74,0,0,0,126.21,23.43Z"/><path class="cls-20" d="M127,20.51l3.94,1.56-1.4-1.22c6.72,7.27,5.29,17,7.1,25.72a23.16,23.16,0,0,0,5.72,11.52c4.88,5.35,11.75,8.61,18.58,10.65a74.79,74.79,0,0,0,20.62,2.73c8.38.11,16.64-1,24.92-2.17,10.81-1.56,21.5-3,32.45-3.06,17.84-.09,35.94,2.56,52.56,9.2A106.49,106.49,0,0,1,307,83.12a95.1,95.1,0,0,1,13.9,10.2c.39.31.47,0,.52-.31s-.8-1.62-1.12-1.86a74.41,74.41,0,0,0-10.58-7.78,77.22,77.22,0,0,0-11.4-6.49,126.32,126.32,0,0,0-20.74-7.54A147.93,147.93,0,0,0,246,64.49a168.63,168.63,0,0,0-28.06,1c-5.54.68-11.06,1.53-16.6,2.28a166,166,0,0,1-17.24,1.54,73.32,73.32,0,0,1-17.78-1.53c-8.69-2-17.06-5.52-23.29-12.1a14.49,14.49,0,0,1-4.3-7.41,27.56,27.56,0,0,1-2.46-10.37c-.37-2.86-.25-6-1-8.81a15.8,15.8,0,0,0-4-7.6,10.09,10.09,0,0,0-1.48-1.12,9.8,9.8,0,0,0-4.33-1.69c-.49-.1-.44.13-.36.48A4.05,4.05,0,0,0,127,20.51Z"/><path class="cls-21" d="M125.86,21.41l2.63.44-.4-.15,3,2.37-5.65-7.18,7,9.36-6.1-9.62,8.48,15.66-4.39-11.53a97.23,97.23,0,0,1,6.25,21.9,41.71,41.71,0,0,0,2,7.69,25.89,25.89,0,0,0,8.45,11.37,44.58,44.58,0,0,0,14.21,7.13,75.84,75.84,0,0,0,23.31,3c9.29-.09,18.47-1.62,27.66-2.78a207.78,207.78,0,0,1,25.54-1.87A156.69,156.69,0,0,1,274,71.13a127.68,127.68,0,0,1,16.89,5.19,109.23,109.23,0,0,1,15.68,7.55l-.36-.22,7.64,4.93-.34-.24,7.2,5.59a2.42,2.42,0,0,0-.44-1.5q-1.23-2.59-2.57-5.16T315,82.18a2.48,2.48,0,0,0-1-1.22,85.83,85.83,0,0,0-11.64-7.08,59.84,59.84,0,0,0-8.12-4,135.71,135.71,0,0,0-21.4-7.41,181.35,181.35,0,0,0-45.59-5.23c-12.6.06-25.07,2.1-37.65,2.4-8.81.21-18-.38-26.42-3.32C156.16,53.87,149.17,50,144.44,44l-2.77-3.84L140,36.66c-1.47-3.06-2.85-6.2-4.42-9.22a43.87,43.87,0,0,0-3.42-5.91,35.1,35.1,0,0,0-4.91-5.14,25.55,25.55,0,0,0-6-4,15.46,15.46,0,0,0-5.88-1.25,2.46,2.46,0,0,0,.88,1.28c1.33,1.4,2.69,2.76,4.08,4.1s2.76,2.69,4.18,4A2.48,2.48,0,0,0,125.86,21.41Z"/><path class="cls-22" d="M125.67,20.62l4.6,1.72L128,20.25l3.51,3.66-2.59-3.13,3.87,5.37-2.66-4.29,3.61,6.81-2.07-4.58,2.76,7.25-1.18-3.75A93.75,93.75,0,0,1,136,41.85,45,45,0,0,0,137.8,50a25.38,25.38,0,0,0,8.4,11.15c12.37,9.78,30,10.91,45.05,9.79,9.17-.69,18.22-2.38,27.35-3.41a170.21,170.21,0,0,1,37.28-.24,134,134,0,0,1,34.59,8.18,106.49,106.49,0,0,1,15.61,7.57,96.23,96.23,0,0,1,14.06,10.07c.8.63-.42-2-.25-1.63-.44-.9-.9-1.8-1.39-2.67a4.34,4.34,0,0,0-.89-1.31,77.1,77.1,0,0,0-11-7.45,55.12,55.12,0,0,0-7.77-4.23,123.57,123.57,0,0,0-20.73-8A161.66,161.66,0,0,0,233,62.21c-13.1.09-25.95,2.46-39,3.42-9.78.72-20.09.75-29.62-2A61.38,61.38,0,0,1,154.87,60c-5.19-2.5-11.82-7.51-14.31-12.61S136.84,36.52,135.18,31a28.76,28.76,0,0,0-5.28-10.12,15.54,15.54,0,0,0-3.27-3,11.73,11.73,0,0,0-5.43-1.72c-1-.14,1,1.63.85,1.46.75.7,1.52,1.38,2.3,2A4.65,4.65,0,0,0,125.67,20.62Z"/><path class="cls-23" d="M127.9,20.43l4,1.71-1.25-1a19.19,19.19,0,0,1,4,6.9,27.85,27.85,0,0,1,.8,5.75c.36,3.59.83,7.2,1.42,10.76a28.37,28.37,0,0,0,2.19,7.73c2.51,5.32,7.2,9.32,12.29,12.14,7.47,4.15,16.13,6,24.58,6.64,9.42.65,18.73-.19,28.06-1.5,5.72-.8,11.45-1.82,17.19-2.42,6.23-.64,12.52-1,18.78-1.06l9.23.22,17.83,2a142.32,142.32,0,0,1,17.26,4.2,104.5,104.5,0,0,1,19.89,8.58,49.83,49.83,0,0,1,7.33,4.47,70.73,70.73,0,0,1,10.26,7.82c.33.27.47-.06.51-.31s-.65-1.28-.91-1.49a73.37,73.37,0,0,0-10.49-7.83,76.8,76.8,0,0,0-11.3-6.53A126.28,126.28,0,0,0,279,69.55a147.5,147.5,0,0,0-40.7-5.18,188.46,188.46,0,0,0-21.89,1.48c-5.65.74-11.28,1.64-16.93,2.37-11.53,1.49-23.45,2-34.81-.81a47.58,47.58,0,0,1-12.74-4.83l-4.44-2.83a18.51,18.51,0,0,1-6.07-7,13.69,13.69,0,0,1-3.45-7.48l-.72-3.62c-.46-2.83-.54-7.08-.83-9.61-.42-3.58-1.19-7.93-4.08-10.44a19.73,19.73,0,0,0-2.46-1.7,8.87,8.87,0,0,0-3.19-1c-.44-.1-.41.22-.34.5S127.56,20.36,127.9,20.43Z"/><path class="cls-24" d="M125.45,22.25l2.64.45-.36-.14,3.86,3.28-5.37-7.62,6,9.05-4-7.22,5.05,9.75L130,22.17l4.12,10.25-2.45-7.9Q134.78,36,137,47.77A41,41,0,0,0,138.22,52a26.52,26.52,0,0,0,8.31,11c5.46,4.53,12.86,7,19.69,8.44a84.93,84.93,0,0,0,21.53,1.29c8.12-.42,16.12-1.67,24.18-2.73a195,195,0,0,1,30.16-1.8A153,153,0,0,1,273.64,72a122.66,122.66,0,0,1,16.89,5.23,108.4,108.4,0,0,1,15.68,7.59l-.33-.21,7.61,5-.32-.23L320.34,95a2.15,2.15,0,0,0-.3-1.41q-1-2.48-2.1-4.9t-2.24-4.83a2.11,2.11,0,0,0-.84-1.16,111.33,111.33,0,0,0-15.45-9.34,126.26,126.26,0,0,0-16.65-6.83,152.14,152.14,0,0,0-26.58-6.09A191.93,191.93,0,0,0,224,58.73c-9,.26-18,1.42-27,2.06a124.86,124.86,0,0,1-18.65.25,60.06,60.06,0,0,1-19.15-4.43,43.27,43.27,0,0,1-11.67-7.31,33.57,33.57,0,0,1-6.08-7.2q-1.65-3.65-3.35-7.29l.15.36c-1.5-3.74-3-8.09-5.29-11.47A37,37,0,0,0,128.18,18a21.29,21.29,0,0,0-5.68-4.15,15.27,15.27,0,0,0-5.72-1.32,2,2,0,0,0,.68,1.21q1.65,2,3.37,3.89c1.13,1.28,2.3,2.54,3.49,3.78A2,2,0,0,0,125.45,22.25Z"/><path class="cls-25" d="M323.38,38.26a24,24,0,0,1,7.92,2.15q13.06,6.74,16,21.61l-.59-3.25a101.7,101.7,0,0,1,.93,21.2q-.14,4.75.2,9.51a41.69,41.69,0,0,0,3.73,13.89A44.33,44.33,0,0,0,369,122.72c10.28,6,23.8,8.28,35.12,3.92a41.86,41.86,0,0,0,13.16-7.87,39.62,39.62,0,0,0,6.59-7.79,35.32,35.32,0,0,0,4.1-9.48c.16-.44-2.67-.13-2.6-.14-.47,0-2.26,0-2.53.62a44.79,44.79,0,0,1-4.12,8.07,31.43,31.43,0,0,1-8,7.82,35.38,35.38,0,0,1-8.11,4.29,34.64,34.64,0,0,1-15.8,1.89,40.45,40.45,0,0,1-9.35-2.16l-4.4-1.87a24.9,24.9,0,0,1-10.72-9.38,22.61,22.61,0,0,1-7.89-9.28,21.68,21.68,0,0,1-2.06-4.55,42.74,42.74,0,0,1-2.87-11.42c-.73-7.35-.35-14.77-1.27-22.1a34.16,34.16,0,0,0-3.39-11.22,34.84,34.84,0,0,0-9.32-11.51A29.64,29.64,0,0,0,329.7,37,36.13,36.13,0,0,0,320,33.9c-.87-.17.63,1.51.54,1.41.58.69,1.18,1.36,1.8,2A3.8,3.8,0,0,0,323.38,38.26Z"/><path class="cls-26" d="M323.75,42.32a31.39,31.39,0,0,1,7.91,2.13l9.09,7.3,2.32,3.3,4.15,24.2L347,84.33a72.7,72.7,0,0,0,.1,9.1,43.34,43.34,0,0,0,15.2,28.83,44.35,44.35,0,0,0,34.89,10.17,39.68,39.68,0,0,0,26.16-16.27,17,17,0,0,0,2.71-4.55,28.54,28.54,0,0,0,2.85-7.51c.19-.57-1.66-1.28-1.86-.74a27.58,27.58,0,0,1-2.95,7,15.09,15.09,0,0,1-2.71,4.21,39.38,39.38,0,0,1-8.92,8.51,35.86,35.86,0,0,1-13.86,5.74,47.61,47.61,0,0,1-10.4.38,42,42,0,0,1-14.81-3.9L369,123l-7.88-6.12a31.64,31.64,0,0,1-5-6,36.86,36.86,0,0,1-3.9-6.46l-1.8-4.49a27.46,27.46,0,0,1-1.82-9,99.87,99.87,0,0,1-.49-13.17c0-2.17.05-4.33,0-6.49a36.86,36.86,0,0,0-1.26-9.64,32.61,32.61,0,0,0-8.44-14.47,28.77,28.77,0,0,0-5.07-4.06l-3.63-1.94a25.27,25.27,0,0,0-7.64-1.89c-.66-.11,0,.94,0,1C322.42,40.75,323.12,42.21,323.75,42.32Z"/><path class="cls-27" d="M321.29,35.47a25.29,25.29,0,0,1,8.12,2.23l-.36-.14A28.34,28.34,0,0,1,336,42q12.76,10.78,11.66,30.25c.25,4.73.06,9.42.6,14.14a44.7,44.7,0,0,0,16.57,30.25c9,7,21.48,10.53,32.77,8.29a37.49,37.49,0,0,0,17.07-8.47,38.91,38.91,0,0,0,6.34-7.22,34.33,34.33,0,0,0,4-8.85c.1-.26-6.68.06-6.52,0-1.71.11-3.43.25-5.13.42a2.11,2.11,0,0,0-1.35.39,11.43,11.43,0,0,1-2.51,4,16.23,16.23,0,0,1-2.18,2.36,24.41,24.41,0,0,1-6.8,4.62,24.7,24.7,0,0,1-8.25,2.17,7.23,7.23,0,0,1-3.24-.08c-1.75-.26-3.51-.51-5.26-.74a34.38,34.38,0,0,1-15.15-8A50.15,50.15,0,0,1,356,86.27a30.24,30.24,0,0,1-1.62-4.69,28.19,28.19,0,0,1-1.48-6.86c-.61-3.09-1.23-6.19-1.86-9.28-1.57-7.68-3.94-15.55-8.57-22A43.65,43.65,0,0,0,325.17,29.7a56.48,56.48,0,0,0-12.65-3.89,2,2,0,0,0,.7,1.21c1.1,1.32,2.24,2.61,3.4,3.87s2.33,2.54,3.53,3.77A2.09,2.09,0,0,0,321.29,35.47Z"/><path class="cls-28" d="M321.46,37.59a24.44,24.44,0,0,1,8.05,2.23l-.31-.12a27.69,27.69,0,0,1,6.85,4.47,30.18,30.18,0,0,1,5.38,6.07c8.09,11.88,4.52,25.44,5.8,38.23A44.07,44.07,0,0,0,362,117.29c9.4,8.33,23,12.54,35.48,9.93a38.25,38.25,0,0,0,17.35-8.89,39.5,39.5,0,0,0,6.35-7.42,35.47,35.47,0,0,0,4-9c.13-.38-4.75-.3-4.63-.3-.45,0-4.22-.32-4.61.45a27,27,0,0,1-6.5,8.95,37.07,37.07,0,0,1-6.32,4.23,25.25,25.25,0,0,1-5.5,2,20.77,20.77,0,0,1-5.85,1.07,43.35,43.35,0,0,1-9.5-1.34,37.37,37.37,0,0,1-17.83-10.69c-6.37-6.64-9.8-14.71-12.4-23.42l.06.34c-1-6.95-1.87-13.95-3.21-20.84-1.27-6.55-3.67-13.4-8-18.6A44.11,44.11,0,0,0,327.29,33a45.54,45.54,0,0,0-12.23-4,1.45,1.45,0,0,0,.43,1.08c.79,1.17,1.61,2.33,2.47,3.45s1.7,2.27,2.59,3.36A1.49,1.49,0,0,0,321.46,37.59Z"/><path class="cls-29" d="M324,37.86l4,.72q13.63,3.48,13.25,19.92,7.2,8.91,6.17,19.09c-.12,1.58-.17,3.15-.16,4.72a52.7,52.7,0,0,0,.85,11.63,46.33,46.33,0,0,0,3.1,9.27,41.51,41.51,0,0,0,7.38,10.84,43.07,43.07,0,0,0,6.22,5.77,44.54,44.54,0,0,0,11.25,5.93A41.69,41.69,0,0,0,389,128.48a39.54,39.54,0,0,0,10.91-.82,42,42,0,0,0,18-9.52,50,50,0,0,0,3.69-3.87,25.75,25.75,0,0,0,4.22-6.52,26.72,26.72,0,0,0,2.88-7.31c.15-.45-2-.06-2-.07-.49.08-1.63.09-1.85.67l-1.64,4.44L365.51,117.1a44.6,44.6,0,0,1-16.06-25.4c-2.23-10,.12-20.39-1.45-30.48a32.7,32.7,0,0,0-5.28-13,30.94,30.94,0,0,0-7.58-7.73,31.47,31.47,0,0,0-5.64-3.29,33.07,33.07,0,0,0-7.68-2c-.7-.13.27,1,.24,1C322.49,36.65,323.28,37.73,324,37.86Z"/><path class="cls-30" d="M321.15,34.84A27.41,27.41,0,0,1,332.57,39q9.89,6.41,13.36,18.71a94.66,94.66,0,0,1,1.49,18.62c0,3.08.16,6.15.46,9.22a44.63,44.63,0,0,0,14.62,28.73c9.21,8.26,22.51,12.52,34.82,10.14a37.67,37.67,0,0,0,17.22-8.5,38.53,38.53,0,0,0,6.41-7.26A34.71,34.71,0,0,0,425,99.71c.1-.26-5.52.44-5.38.42-1.41.2-2.81.44-4.2.71a1.45,1.45,0,0,0-1.07.46l-1.55,3.1a22.55,22.55,0,0,1-3.35,4.06,25.65,25.65,0,0,1-7.22,5.27,31,31,0,0,1-7,2.41c-3.07.62-5.94.24-9-.12-14.05-1.66-25.06-12.75-30.33-25.37-5.56-13.3-4.53-28.32-10.75-41.42a37.75,37.75,0,0,0-14.76-15.68,51.68,51.68,0,0,0-7.84-3.83c-3.63-1.42-4.67-1.46-8.48-2.2a1.31,1.31,0,0,0,.53,1c.88,1,1.79,2,2.73,3S319.8,34.58,321.15,34.84Z"/><path class="cls-31" d="M322.08,39.22a24.65,24.65,0,0,1,8.07,2.25l-.33-.16a27.78,27.78,0,0,1,6.83,4.5A30.21,30.21,0,0,1,342,51.93c7.95,11.9,4.27,25.4,5.53,38.15A44.26,44.26,0,0,0,362.3,119c9.48,8.4,23.24,12.6,35.77,9.84a38.59,38.59,0,0,0,17.37-9.1,39.65,39.65,0,0,0,6.32-7.54,35.2,35.2,0,0,0,3.87-9.11c.15-.43-4.94-.79-4.84-.78-.34,0-4.52-.76-4.9,0a27,27,0,0,1-6.53,8.9,38,38,0,0,1-6.3,4.2,26.33,26.33,0,0,1-5.48,2,21,21,0,0,1-5.83,1.08,44.29,44.29,0,0,1-9.46-1.32,37.37,37.37,0,0,1-17.81-10.63c-6.36-6.61-9.79-14.65-12.38-23.34l.07.37c-1-7-1.88-14-3.23-20.95-1.45-7.5-4.35-14.57-9.5-20.3a38.69,38.69,0,0,0-8.71-7.21c-1.22-.74-2.49-1.49-3.75-2.15a44.91,44.91,0,0,0-11.93-3.87,1.81,1.81,0,0,0,.49,1.23c.87,1.37,1.78,2.72,2.71,4s1.87,2.66,2.85,4A1.78,1.78,0,0,0,322.08,39.22Z"/><path class="cls-32" d="M322.91,36.49a18.48,18.48,0,0,1,9.22,3Q347,47.41,346.6,69c0,3.07-.27,6.13-.39,9.19-.29,7.21.32,14,3,20.82a44.31,44.31,0,0,0,28.09,26,38.82,38.82,0,0,0,37.46-6.86,35.12,35.12,0,0,0,8.45-9.45,49.47,49.47,0,0,0,4-9.64c.25-.73-3.21,0-3.41.61l-3.61,8.63-2.71,3.73-3.15,3.35-50,.12a46.19,46.19,0,0,1-12.67-16.51A48.75,48.75,0,0,1,347.56,81c-.3-6.46.32-13-.45-19.43a32.77,32.77,0,0,0-5.19-14.21,30.73,30.73,0,0,0-7.42-7.71,27.28,27.28,0,0,0-7.26-3.87c-2.85-1-2-.67-5.88-1.32-.59-.1.07.82.08.83A3.07,3.07,0,0,0,322.91,36.49Z"/><path class="cls-33" d="M321.77,37.1a25,25,0,0,1,8.13,2.24l-.38-.2,4,2.18-.37-.2a33.2,33.2,0,0,1,6.18,5.28q9.78,11,8.37,27.5c.18,4.74,0,9.41.5,14.13a44.67,44.67,0,0,0,16.66,30.34c9.09,7,21.79,10.57,33.18,8.16a37.76,37.76,0,0,0,17.08-8.75,39.88,39.88,0,0,0,6.25-7.35,35.51,35.51,0,0,0,3.87-8.92c.12-.34-6.86-.62-6.7-.62-1.76-.07-3.53-.11-5.3-.11a2.11,2.11,0,0,0-1.42.25,22,22,0,0,1-5.69,7.51,34.53,34.53,0,0,1-5.61,3.56c-2.63,1.33-7,2.59-10,2.39A40.38,40.38,0,0,1,381.9,113a35.56,35.56,0,0,1-16.33-10.51A48.46,48.46,0,0,1,358.86,93a52.3,52.3,0,0,1-2.93-6.64,46.57,46.57,0,0,1-2.33-7C351,67,349.91,53.69,342.23,43.18A38.48,38.48,0,0,0,332.75,34a54.42,54.42,0,0,0-7.93-4.56,57.12,57.12,0,0,0-12.27-3.77,2.46,2.46,0,0,0,.73,1.38c1.17,1.54,2.36,3.06,3.59,4.55s2.44,3,3.7,4.45A2.51,2.51,0,0,0,321.77,37.1Z"/><path class="cls-34" d="M321.48,36.35a33.36,33.36,0,0,1,7.93,2.15l3.58,2,10.27,11.65,1.57,3.75,1.68,8.23c.5,4.63.15,9.32.14,14,0,6.23.21,12.39,2.16,18.36a44.49,44.49,0,0,0,9.07,15.69,43.11,43.11,0,0,0,37,14.27,37.34,37.34,0,0,0,18.33-7.71,36.78,36.78,0,0,0,7-7.1,16.14,16.14,0,0,0,2.7-4.22,26.57,26.57,0,0,0,2.91-7c.13-.38-3.38.22-3.26.2-.55.1-2.8.21-3.12,1a32.56,32.56,0,0,1-5.3,8.93,31.51,31.51,0,0,1-8.12,6.69,33.25,33.25,0,0,1-10.35,3.72,31.88,31.88,0,0,1-10.54-.09,38.46,38.46,0,0,1-20-9.6,47.06,47.06,0,0,1-8-9.6c-2.92-4.66-5.72-10.38-6.63-15.72-1.88-11.06-1-22.9-5.43-33.38a33.63,33.63,0,0,0-7.15-10.63,36.83,36.83,0,0,0-8.5-6.45,40.46,40.46,0,0,0-11.77-3.95c-.92-.18.73,1.67.64,1.55.64.79,1.31,1.55,2,2.31A4.41,4.41,0,0,0,321.48,36.35Z"/><path class="cls-35" d="M323.54,36.37a18.32,18.32,0,0,1,5.95,1.38Q349.1,44,347,73.62c-.12,3.87-.38,7.69-.23,11.56a42.22,42.22,0,0,0,9.5,25.26c6.87,8.17,16.42,14.24,27.11,15.87,9,1.37,18.07.29,26.14-4.12a39.48,39.48,0,0,0,11.73-9.69,41.55,41.55,0,0,0,3-4.34,45.91,45.91,0,0,0,3.86-9.39c.24-.75-3.11,0-3.29.54l-63.76,13.48-3.62-4A45.93,45.93,0,0,1,352,100a46.7,46.7,0,0,1-4.16-18.31c-.27-7.3.8-14.78-.35-22A32.16,32.16,0,0,0,343,48.11a29.32,29.32,0,0,0-10.86-10.45c-3.08-1.79-6.05-2.37-9.57-2.93C321.48,34.54,323.07,36.29,323.54,36.37Z"/><path class="cls-36" d="M321.37,38a25,25,0,0,1,8.13,2.28l-.34-.19,3.94,2.2-.33-.2a33.13,33.13,0,0,1,6.17,5.35q9.74,11.19,8.11,27.74c.13,4.74-.13,9.41.37,14.14a44.1,44.1,0,0,0,16.74,30.34c9.19,7,22,10.46,33.44,7.92a38.07,38.07,0,0,0,17.1-9,39.83,39.83,0,0,0,6.22-7.42,35.09,35.09,0,0,0,3.83-9c.14-.41-5.66-.83-5.54-.82-.32,0-5.21-.84-5.59-.08a12.86,12.86,0,0,1-2.56,4.38,15.65,15.65,0,0,1-2.23,2.58,26,26,0,0,1-7.07,5.12,27.09,27.09,0,0,1-8.7,2.56,29.93,29.93,0,0,1-8.94-.58c-14.79-2.87-25.25-15.86-29.79-29.58-2.47-7.46-3-15.41-4.68-23.07-1.51-6.81-3.76-13.54-8-19.14a41.29,41.29,0,0,0-8-7.9A47.79,47.79,0,0,0,325.88,31a49.61,49.61,0,0,0-12.13-3.82,2,2,0,0,0,.55,1.3c.95,1.46,1.94,2.89,2.95,4.3s2,2.83,3.08,4.21A2.06,2.06,0,0,0,321.37,38Z"/><path class="cls-37" d="M198.23,14.26a119.16,119.16,0,0,1,18.36,2,138.51,138.51,0,0,1,17.94,4.52,155.93,155.93,0,0,1,25.26,10.91A151.19,151.19,0,0,1,296,59.25a146.39,146.39,0,0,1,11.84,13.89c.58.72.08-1.75.16-1.4-.25-1.07-.47-2.75-1.21-3.63a149.65,149.65,0,0,0-12.43-13.84,153.77,153.77,0,0,0-14-12.23A165.62,165.62,0,0,0,256.8,27a154.25,154.25,0,0,0-25.9-10.59,144.86,144.86,0,0,0-18.25-4.32,161.91,161.91,0,0,0-18.1-2c-.87-.07.68,1.44.62,1.38.63.66,1.27,1.31,1.93,1.93A3.71,3.71,0,0,0,198.23,14.26Z"/><path class="cls-38" d="M198.68,18.32a103.48,103.48,0,0,1,18.41,1.89A136,136,0,0,1,235,24.78a154.12,154.12,0,0,1,25.1,11,151.64,151.64,0,0,1,22.6,15.32A148.47,148.47,0,0,1,296,63.41a145.37,145.37,0,0,1,11.73,13.9c.5.63.26-1.33.3-1.11a6.63,6.63,0,0,0-.83-2.88,146,146,0,0,0-12.11-13.83,151.14,151.14,0,0,0-13.68-12.23,162.73,162.73,0,0,0-23-15A150.58,150.58,0,0,0,233,21.53a142.16,142.16,0,0,0-18-4.41A90.34,90.34,0,0,0,197,15.44C196.25,15.41,198,18.28,198.68,18.32Z"/><path class="cls-39" d="M196,11.56a136.83,136.83,0,0,1,18.49,2.12,142,142,0,0,1,18,4.42l-.37-.12,9.09,3.18-.36-.14,8.85,3.72-.35-.15,8.6,4.24-.34-.17a155,155,0,0,1,15.69,9.57,115.36,115.36,0,0,1,10.9,8.41,114.42,114.42,0,0,1,10.19,9.25,146.63,146.63,0,0,1,12.12,13.77c.3.36.2.25.34-.08l-.12-1c-.24-1.16-.51-2.31-.8-3.46-.43-1.77-.88-3.54-1.37-5.29a5.27,5.27,0,0,0-.9-2.22,192.11,192.11,0,0,0-20.59-19.24,163.4,163.4,0,0,0-20-13.3,170,170,0,0,0-49-18.58c-9.09-1.88-18.31-3-27.52-4.06a2,2,0,0,0,.78,1.17q1.78,1.87,3.65,3.67t3.77,3.55A2,2,0,0,0,196,11.56Z"/><path class="cls-40" d="M196.24,13.63a132.43,132.43,0,0,1,18.43,2.08,139,139,0,0,1,18,4.49l-.31-.11,9,3.2-.31-.13,8.79,3.75-.31-.14L258.08,31l-.3-.15a154.75,154.75,0,0,1,15.62,9.66A115,115,0,0,1,284.23,49a114.24,114.24,0,0,1,10.12,9.31,146.08,146.08,0,0,1,12,13.83c.26.32.19.23.35-.06l-.05-.88c-.15-1-.33-2-.53-3-.29-1.56-.6-3.13-1-4.67a4.27,4.27,0,0,0-.72-2,186.58,186.58,0,0,0-20-19.44,159.27,159.27,0,0,0-19.5-13.5,162.37,162.37,0,0,0-25.64-12.31A160.52,160.52,0,0,0,216.64,9.5a269.4,269.4,0,0,0-27.26-4.06,1.41,1.41,0,0,0,.49,1c.85,1.12,1.74,2.21,2.65,3.29s1.82,2.14,2.77,3.18A1.52,1.52,0,0,0,196.24,13.63Z"/><path class="cls-41" d="M198.88,13.81A81.57,81.57,0,0,1,212.48,15a99.55,99.55,0,0,1,13.68,2.66L235,20.27a88.23,88.23,0,0,1,24.51,11.87A75.32,75.32,0,0,1,279,43.65a112.68,112.68,0,0,1,10.52,8.75l6.52,6.39a145.23,145.23,0,0,1,11.8,13.93c.36.44.44.18.57-.18a4.86,4.86,0,0,0-.76-2.49c-3.91-4.79-7.82-9.57-12.17-14A153.4,153.4,0,0,0,281.74,43.7a148.12,148.12,0,0,0-23.35-15.35A161.15,161.15,0,0,0,237,19a143.81,143.81,0,0,0-18-5,67.53,67.53,0,0,0-9.25-1.61,87.58,87.58,0,0,0-13.24-1.19c-.71,0,.32,1,.31,1C197.24,12.64,198.17,13.77,198.88,13.81Z"/><path class="cls-42" d="M195.9,10.94a149.36,149.36,0,0,1,27.29,4l8.92,2.5a143.59,143.59,0,0,1,29.46,13,153.6,153.6,0,0,1,22.57,15.72,114.41,114.41,0,0,1,10.18,9.26,148,148,0,0,1,12.1,13.78c.8,1-.16-2.94-.05-2.43-.34-1.48-.7-3-1.09-4.43a9.83,9.83,0,0,0-.75-2.26,155.12,155.12,0,0,0-13.25-13.52A159.81,159.81,0,0,0,276.51,34.7a163.63,163.63,0,0,0-28.83-16.28,161.23,161.23,0,0,0-31.5-10.3A270,270,0,0,0,188.33,4a1.32,1.32,0,0,0,.59.94c1,1,1.93,1.88,2.94,2.79C192.69,8.52,194.57,10.83,195.9,10.94Z"/><path class="cls-43" d="M196.86,15.23a181.81,181.81,0,0,1,18.47,2.09,141.58,141.58,0,0,1,22.34,6.07,146,146,0,0,1,16.92,7.26,187.53,187.53,0,0,1,19.68,11.79l-.3-.23L281.59,48l-.29-.24,7.25,6.2-.28-.26,6.87,6.62-.27-.27,6.46,7-.26-.28,5.77,7.12c.29.36.18.27.34-.07l-.08-1c-.19-1.18-.41-2.35-.65-3.51-.35-1.8-.72-3.59-1.14-5.37a5.28,5.28,0,0,0-.8-2.27,154.09,154.09,0,0,0-13.16-13.52,160.28,160.28,0,0,0-14.67-11.85,172.78,172.78,0,0,0-24.36-14.39,164.08,164.08,0,0,0-26.51-10C213.88,8.6,201.64,7,189.37,5.57a1.81,1.81,0,0,0,.55,1.2c.94,1.31,1.9,2.6,2.9,3.87s2,2.53,3,3.76A1.8,1.8,0,0,0,196.86,15.23Z"/><path class="cls-44" d="M197.79,12.43a71.39,71.39,0,0,1,22.39,3.43,86.33,86.33,0,0,1,22.11,6.06,142.79,142.79,0,0,1,24.43,12.5,151.66,151.66,0,0,1,21.7,16.63l6.5,6.38a145.54,145.54,0,0,1,11.77,13.88c.29.37.43.15.58-.14a3.66,3.66,0,0,0-.5-2A149.25,149.25,0,0,0,294.7,55.24a154.29,154.29,0,0,0-45.09-31.76,147,147,0,0,0-26.54-9.34q-4.57-1-9.15-2a96.5,96.5,0,0,0-17.86-1.72c-.6,0,.12.8.15.83C196.54,11.69,197.23,12.39,197.79,12.43Z"/><path class="cls-45" d="M196.53,13.16l9.28.72a112.34,112.34,0,0,1,13.78,2.35,136.08,136.08,0,0,1,22.18,6.57,181.79,181.79,0,0,1,16.72,7.72c8.19,4.29,15.59,9.62,23,15.14l-.33-.27,7.33,6.2-.31-.29,6.94,6.62-.29-.3,6.52,7-.28-.32,6.08,7.42a2.5,2.5,0,0,0-.07-1.55q-.57-2.82-1.25-5.61T304.39,59a2.42,2.42,0,0,0-.64-1.41A156,156,0,0,0,290.2,44.19a162.13,162.13,0,0,0-15-11.72,176.56,176.56,0,0,0-24.84-14.15A169.88,169.88,0,0,0,223.43,8.6c-12-3.21-24.4-4.86-36.75-6.27a2.48,2.48,0,0,0,.81,1.33q1.88,2.21,3.84,4.34c1.29,1.43,2.6,2.84,3.95,4.22A2.46,2.46,0,0,0,196.53,13.16Z"/><path class="cls-46" d="M196.29,12.39a124.13,124.13,0,0,1,18.34,2,138.91,138.91,0,0,1,18,4.47A157.73,157.73,0,0,1,258,29.7a153.79,153.79,0,0,1,22.87,15.18,151.62,151.62,0,0,1,13.56,12.27A148.31,148.31,0,0,1,306.33,71c.63.78.13-2,.2-1.65-.19-1-.39-2-.63-3a4.43,4.43,0,0,0-.5-1.5,153.13,153.13,0,0,0-12.68-13.66,157.16,157.16,0,0,0-14.24-12,169.49,169.49,0,0,0-23.81-14.75,157.76,157.76,0,0,0-26.1-10.36c-11.93-3.52-24.08-5.17-36.42-6.36-.92-.08.81,1.59.74,1.51.7.74,1.42,1.47,2.15,2.18A4.63,4.63,0,0,0,196.29,12.39Z"/><path class="cls-47" d="M198.66,12.33a119.68,119.68,0,0,1,27.19,3.84l8.85,2.6a140.56,140.56,0,0,1,29,13.34,151,151,0,0,1,22.1,16,111,111,0,0,1,9.91,9.37,145.16,145.16,0,0,1,11.71,13.9c.24.3.46.09.58-.15s-.21-1.35-.4-1.59a147.22,147.22,0,0,0-12-14A151,151,0,0,0,255,25.88a146.15,146.15,0,0,0-30.26-11.47A153.3,153.3,0,0,0,206.2,11a46.53,46.53,0,0,0-9.07-.31c-.55,0,.08.73.12.77A2.52,2.52,0,0,0,198.66,12.33Z"/><path class="cls-48" d="M196.13,14A102.81,102.81,0,0,1,210,15.46a110.69,110.69,0,0,1,13.72,2.64,139.59,139.59,0,0,1,26.11,9.27A152.85,152.85,0,0,1,273.72,41.2l7.34,5.52A154.09,154.09,0,0,1,294.67,59l-.27-.29,6.48,7.05-.26-.31,6,7.43a2.15,2.15,0,0,0,0-1.46c-.27-1.79-.58-3.56-.92-5.33s-.68-3.55-1.07-5.31a2.25,2.25,0,0,0-.56-1.35A154.51,154.51,0,0,0,290.78,46a162.16,162.16,0,0,0-14.86-11.79A175.93,175.93,0,0,0,251.3,19.92a166.72,166.72,0,0,0-26.71-9.85c-12-3.28-24.3-4.92-36.63-6.3A2.06,2.06,0,0,0,188.59,5c1,1.39,2.08,2.76,3.16,4.1s2.16,2.69,3.29,4A2,2,0,0,0,196.13,14Z"/><path class="cls-49" d="M116.12,29.82l.95,16.43c.08,1.43,2.33,1.44,2.25,0l-.95-16.43c-.08-1.44-2.33-1.45-2.25,0Z"/><path class="cls-50" d="M109.41,39q9.36.38,18.69,1.32c1.44.14,1.43-2.11,0-2.25q-9.33-.95-18.69-1.32C108,36.72,108,39,109.41,39Z"/><path class="cls-51" d="M122,30.83a102.5,102.5,0,0,0-11.11,12.54,1.13,1.13,0,0,0,.4,1.54,1.16,1.16,0,0,0,1.54-.4,98.8,98.8,0,0,1,10.76-12.09c1-1-.55-2.6-1.59-1.59Z"/><path class="cls-52" d="M111.58,32.71,123,44.25a1.13,1.13,0,0,0,1.59-1.6L113.17,31.12a1.12,1.12,0,0,0-1.59,1.59Z"/><path class="cls-53" d="M242.16,81.41l1,16.42c.08,1.44,2.33,1.45,2.25,0l-1-16.42c-.08-1.44-2.33-1.45-2.25,0Z"/><path class="cls-54" d="M235.45,90.62q9.36.39,18.69,1.32c1.44.14,1.43-2.11,0-2.25q-9.33-.93-18.69-1.32c-1.45-.06-1.45,2.19,0,2.25Z"/><path class="cls-55" d="M248.07,82.41A107.58,107.58,0,0,0,237,95c-.88,1.15,1.07,2.28,1.94,1.13A103.64,103.64,0,0,1,249.67,84c1-1-.55-2.59-1.6-1.59Z"/><path class="cls-56" d="M237.62,84.29l11.45,11.54a1.12,1.12,0,0,0,1.59-1.59L239.21,82.7a1.12,1.12,0,0,0-1.59,1.59Z"/><path class="cls-57" d="M215.16,27.41l1,16.42c.08,1.44,2.33,1.45,2.25,0l-1-16.42c-.08-1.44-2.33-1.45-2.25,0Z"/><path class="cls-58" d="M208.45,36.62q9.36.38,18.69,1.32c1.44.14,1.43-2.11,0-2.25q-9.33-.94-18.69-1.32c-1.45-.06-1.45,2.19,0,2.25Z"/><path class="cls-59" d="M221.07,28.41A103.35,103.35,0,0,0,210,41a1.13,1.13,0,0,0,.4,1.54,1.16,1.16,0,0,0,1.54-.41A99.45,99.45,0,0,1,222.67,30c1-1-.55-2.59-1.6-1.59Z"/><path class="cls-60" d="M210.62,30.29l11.45,11.54a1.12,1.12,0,0,0,1.59-1.59L212.21,28.7a1.12,1.12,0,0,0-1.59,1.59Z"/><path class="cls-61" d="M358.6,124.41l.95,16.42c.08,1.44,2.33,1.45,2.25,0l-.95-16.42c-.08-1.44-2.33-1.45-2.25,0Z"/><path class="cls-62" d="M351.89,133.62q9.36.38,18.69,1.32c1.44.14,1.43-2.11,0-2.25q-9.31-.94-18.69-1.32c-1.45-.06-1.44,2.19,0,2.25Z"/><path class="cls-63" d="M364.52,125.41A102.59,102.59,0,0,0,353.41,138a1.13,1.13,0,0,0,.4,1.54,1.16,1.16,0,0,0,1.54-.41A101.16,101.16,0,0,1,366.11,127c1.05-1-.55-2.59-1.59-1.59Z"/><path class="cls-64" d="M354.06,127.29l11.45,11.54a1.12,1.12,0,0,0,1.59-1.59L355.65,125.7c-1-1-2.61.57-1.59,1.59Z"/><path class="cls-65" d="M382,81.41,383,97.83c.08,1.44,2.33,1.45,2.25,0l-.95-16.42C384.21,80,382,80,382,81.41Z"/><path class="cls-66" d="M375.33,90.62q9.38.38,18.69,1.32c1.44.14,1.43-2.11,0-2.25q-9.31-.94-18.69-1.32c-1.44-.06-1.44,2.19,0,2.25Z"/><path class="cls-67" d="M388,82.41A102.59,102.59,0,0,0,376.85,95a1.13,1.13,0,0,0,.4,1.54,1.16,1.16,0,0,0,1.54-.41A101.16,101.16,0,0,1,389.55,84c1.05-1-.55-2.59-1.59-1.59Z"/><path class="cls-68" d="M66.65,71.41l.95,16.42c.08,1.44,2.34,1.45,2.25,0L68.9,71.41c-.08-1.44-2.33-1.45-2.25,0Z"/><path class="cls-69" d="M59.94,80.62q9.38.38,18.69,1.32c1.44.14,1.43-2.11,0-2.25q-9.31-.94-18.69-1.32c-1.44-.06-1.44,2.19,0,2.25Z"/><path class="cls-70" d="M72.57,72.41A103.43,103.43,0,0,0,61.46,85a1.13,1.13,0,0,0,.4,1.54,1.16,1.16,0,0,0,1.54-.41A101.16,101.16,0,0,1,74.16,74c1-1-.54-2.59-1.59-1.59Z"/><path class="cls-71" d="M62.11,74.29,73.56,85.83a1.12,1.12,0,0,0,1.59-1.59L63.7,72.7c-1-1-2.61.57-1.59,1.59Z"/><path class="cls-72" d="M79.68,143.64A75.8,75.8,0,0,1,93.47,136a87.56,87.56,0,0,1,15-5,96.16,96.16,0,0,1,46.35.77,96.61,96.61,0,0,1,22.64,9.75c5.63,3,11.44,5.64,17.8,6.65,13.43,2.14,26.86-3.9,37.37-11.83C248,124.75,258.14,108.2,268.12,92c.18-.3-3.11,0-3,0-.66.08-2.44.06-2.88.76-9.76,15.22-19.78,30.59-34.87,41.09a57.5,57.5,0,0,1-20,9.23c-9.7,2.16-18,.72-26.69-2.92-5.14-2.16-10-4.85-15.16-7a94.3,94.3,0,0,0-31-6.95,100.28,100.28,0,0,0-31.71,3.15,92.24,92.24,0,0,0-15.13,5.45A102.4,102.4,0,0,0,74,142.28c-.75.45,1.43.8,1.36.78.93.2,1.86.36,2.79.5A3.75,3.75,0,0,0,79.68,143.64Z"/><path class="cls-73" d="M80.62,147a63.09,63.09,0,0,1,13.86-7.82,85.38,85.38,0,0,1,15-4.8,95,95,0,0,1,46.13,1.29,91.3,91.3,0,0,1,22.26,10c5.55,3.06,11.39,5.7,17.72,6.64,13.68,2.05,27.29-4.14,37.91-12.32,15.39-11.89,25.49-28.71,35.47-45,.46-.75-1.78-1.13-2-.79-10,16-20.26,32.5-35.74,43.75A60.94,60.94,0,0,1,210,148l-5.59,1-10.5-.14a48,48,0,0,1-11.43-3.42c-4.86-2.07-9.34-4.78-14.09-7.05a77.32,77.32,0,0,0-11-4,95.58,95.58,0,0,0-15.23-3.25,96.62,96.62,0,0,0-31.1,1,91.26,91.26,0,0,0-15.12,4.33,46.23,46.23,0,0,0-7.29,3.18,42,42,0,0,0-10.1,6.19C77.84,146.26,80.18,147.28,80.62,147Z"/><path class="cls-74" d="M77,142.22a62,62,0,0,1,10.39-5.9,74.1,74.1,0,0,1,11-4.63l-.38.13,8-2.34-.39.11A95.62,95.62,0,0,1,121,127.08a97.22,97.22,0,0,1,15.64,0,102.17,102.17,0,0,1,22.9,4.63c7,2.24,13.09,6,19.75,9.06a52.29,52.29,0,0,0,16.57,4.83c13.28,1.34,26.21-5,36.35-13.12,14.07-11.21,23.63-26.24,33.14-41.27a2.27,2.27,0,0,0-1.48,0c-1.8.24-3.6.53-5.4.85s-3.58.63-5.36,1a2.28,2.28,0,0,0-1.38.54c-3.23,4.58-6.48,9.15-9.95,13.55a87.49,87.49,0,0,1-11,12.16C225,124.35,218.65,129,211.5,132a48.36,48.36,0,0,1-11.65,3.52,38.61,38.61,0,0,1-10.12.56l-4.25-.95a47.75,47.75,0,0,1-7.06-1.8c-3.83-1.18-7.58-2.53-11.37-3.86a143.08,143.08,0,0,0-21.48-6,112.12,112.12,0,0,0-29-1.31,102.42,102.42,0,0,0-23.76,4.83,171.68,171.68,0,0,0-29.52,13.57,2.25,2.25,0,0,0,1.41.46c1.79.27,3.6.51,5.4.71s3.62.41,5.43.55A2.23,2.23,0,0,0,77,142.22Z"/><path class="cls-75" d="M77.14,143.68a86.88,86.88,0,0,1,28.61-12.55,95.84,95.84,0,0,1,15.52-2.44,97.34,97.34,0,0,1,31.07,2.71,93,93,0,0,1,14.77,5.08c2.72,1.44,5.45,2.89,8.16,4.35A65.1,65.1,0,0,0,191.09,147a38,38,0,0,0,18.34-.46,61.44,61.44,0,0,0,20.7-10.44c15.24-11.38,25.33-27.61,35.27-43.47a1.27,1.27,0,0,0-1.06-.2c-1.29.07-2.57.17-3.86.31-.74.07-4.23,0-4.84.86-5.84,8.55-11.68,17.14-18.86,24.64a79.44,79.44,0,0,1-17.78,14,52.66,52.66,0,0,1-22,7l-5.31.1-4.18-.91A93.42,93.42,0,0,1,176,135.13c-6.53-2.39-12.88-5.13-19.56-7.12a103.7,103.7,0,0,0-36-4.09,111.08,111.08,0,0,0-24.25,4.39c-10.13,3-19.66,7.93-28.82,13.07a1.34,1.34,0,0,0,1,.53q1.92.56,3.87,1c1.29.31,2.59.59,3.9.83A1.36,1.36,0,0,0,77.14,143.68Z"/><path class="cls-76" d="M80.36,142.66l6.52-4.11a64.44,64.44,0,0,1,10.88-4.92,43.73,43.73,0,0,1,7.49-2.45A45.82,45.82,0,0,1,120.49,129a59.16,59.16,0,0,1,19.23-.69l7.71,1.1a102.74,102.74,0,0,1,15,4.07,76.42,76.42,0,0,1,13.18,6.39c2.1,1.2,4.24,2.37,6.42,3.43,6.75,3.24,13.86,5.34,21.42,4.78,11.94-.89,22.87-6.73,32-14.25,14.08-11.64,23.67-27.2,33.14-42.61.39-.64-1.17-.29-1.23-.28-.64.11-2.84.25-3.23.89C259,100,253.93,108.29,248,115.92c-9.78,12.47-23,24.2-38.64,28.16a38,38,0,0,1-15.69.85c-7.87-1.35-14.84-5-21.84-8.7-13.25-7-28.41-10.17-43.35-10.1a98,98,0,0,0-23.74,3,90.42,90.42,0,0,0-15.16,5.28,92,92,0,0,0-13.47,7.45c-.68.42,1.13.66,1,.65C77.84,142.61,79.66,143.1,80.36,142.66Z"/><path class="cls-77" d="M76.88,141.5l6.84-4.14-.31.16A128.94,128.94,0,0,1,98,131.14a94.38,94.38,0,0,1,15.27-3.78,98.34,98.34,0,0,1,31.15,0A88.55,88.55,0,0,1,170.88,136c5.61,2.9,11.3,6,17.44,7.63a49,49,0,0,0,7.41,1.36,35.83,35.83,0,0,0,10.68-.6,57.37,57.37,0,0,0,21-9.08c16.65-11.16,27.48-28.24,38-44.88a1.64,1.64,0,0,0-1.25,0q-2.26.44-4.5,1c-1.49.34-3,.72-4.46,1.14a1.63,1.63,0,0,0-1.11.57c-5.13,7.46-10.24,15.07-16.32,21.81A80.83,80.83,0,0,1,217.92,131a51.57,51.57,0,0,1-19,6.46,29.38,29.38,0,0,1-9.9-.07,94.64,94.64,0,0,1-11.21-2.91c-6.22-2.13-12.26-4.77-18.52-6.81a105.47,105.47,0,0,0-32.11-5.18,107.26,107.26,0,0,0-36.11,6.14,159.6,159.6,0,0,0-25.6,12.18,1.61,1.61,0,0,0,1.17.36c1.5.15,3,.27,4.49.34s3,.16,4.5.18A1.59,1.59,0,0,0,76.88,141.5Z"/><path class="cls-78" d="M77.71,145a80,80,0,0,1,13.9-7.59,89.74,89.74,0,0,1,15-5l-.33.07,8.07-1.57-.34.05,8.15-.91-.34,0,8.19-.25h-.35a97.08,97.08,0,0,1,15.6,1.41A71.78,71.78,0,0,1,156.7,134a71.19,71.19,0,0,1,11,4l6.1,3.3c9.63,5.21,19.55,9.52,30.73,8,11.63-1.59,22.06-8,30.8-15.53,12.83-11,21.7-25.69,30.55-39.89.13-.21-5.23-.34-5.1-.34-1.35,0-2.69,0-4,.1a1.35,1.35,0,0,0-1.07.31c-3.28,4.76-6.56,9.51-10.07,14.1A97.74,97.74,0,0,1,234.42,121c-6,5.52-12.57,10.5-20,13.88a49.38,49.38,0,0,1-12.14,3.93l-5.24.72-5.3.09-4.17-.92a45.42,45.42,0,0,1-7-1.81c-3.87-1.22-7.6-2.73-11.39-4.18a148.31,148.31,0,0,0-16.8-5.59,109.76,109.76,0,0,0-16.12-2.68,79.5,79.5,0,0,0-12.14-.27A100.76,100.76,0,0,0,104,126.55a126.16,126.16,0,0,0-15.55,4.75,158.13,158.13,0,0,0-21,10.34,1.49,1.49,0,0,0,1,.64c1.34.5,2.68,1,4,1.4s2.71.87,4.09,1.25A1.45,1.45,0,0,0,77.71,145Z"/><path class="cls-79" d="M79,141.14a78.64,78.64,0,0,1,28.4-12.43A93.61,93.61,0,0,1,123,126.47a95.94,95.94,0,0,1,31,3.2,76.38,76.38,0,0,1,18.61,7.63q4,2.41,8.15,4.46a51.77,51.77,0,0,0,11.47,4.1c14.26,3.17,28.51-3,39.7-11.59,15.35-11.76,25.4-28.38,35.33-44.61.4-.66-1.22-.18-1.2-.18-.67.17-2.59.46-3,1.13-9.51,15.45-19.2,31.27-33.91,42.37a59.21,59.21,0,0,1-20.23,10.23,41.61,41.61,0,0,1-11,1.44c-4.85-.11-9.38-1.54-13.87-3.26a87,87,0,0,1-10.71-4.91q-2.09-1.14-4.19-2.24a27.46,27.46,0,0,0-5.82-2.56A98.36,98.36,0,0,0,100.42,129a58.29,58.29,0,0,0-8,2.74,45.65,45.65,0,0,0-7.39,3.3,62.48,62.48,0,0,0-9.9,5.71c-.66.4,1.1.55,1,.54C76.91,141.35,78.34,141.58,79,141.14Z"/><path class="cls-80" d="M77.27,143.49l6.81-4.17A73.9,73.9,0,0,1,95,134.41a45.12,45.12,0,0,1,7.51-2.53A68.81,68.81,0,0,1,114,129.24l-.42,0,8.23-.95-.41,0,8.26-.29h-.42l8.25.36-.42,0A96.93,96.93,0,0,1,152.52,131l7.51,2.2c5.55,1.8,10.39,4.47,15.51,7.12A78,78,0,0,0,189.08,146a37,37,0,0,0,18,.64c11.47-2.27,21.6-8.74,30.06-16.61,11.67-10.86,20-24.15,28.42-37.54a2.3,2.3,0,0,0-1.49-.19c-1.85.08-3.69.19-5.53.35s-3.69.29-5.53.5a2.26,2.26,0,0,0-1.44.41c-5.13,7.24-10.25,14.62-16.33,21.12a78.1,78.1,0,0,1-19.36,15.14,51,51,0,0,1-18.53,6,28.38,28.38,0,0,1-9.73-.19c-3.88-.87-7.68-1.74-11.48-3-6.34-2.05-12.54-4.48-18.93-6.35A107.51,107.51,0,0,0,96.24,126c-11.63,3.29-22.48,8.63-33,14.48a2.38,2.38,0,0,0,1.4.61q2.76.69,5.54,1.27c1.85.41,3.7.78,5.57,1.12A2.36,2.36,0,0,0,77.27,143.49Z"/><path class="cls-81" d="M77.51,142.27a108.06,108.06,0,0,1,13.78-7.61,91.88,91.88,0,0,1,15-5,97.23,97.23,0,0,1,50.19,1.6,39.57,39.57,0,0,1,9.36,3.66,58,58,0,0,1,7.68,3.64c6.21,3.38,12.79,6.7,19.87,7.73,11.36,1.66,22.61-2.09,32.2-8.09,18-11.27,29.42-29.62,40.39-47.24a.79.79,0,0,0-.81-.12c-.95.15-1.89.34-2.82.56s-2.92.35-3.46,1.18c-9.62,14.78-19.5,29.65-34.39,39.68a56.5,56.5,0,0,1-19.59,8.62c-8.25,1.76-16.4.54-24.22-2.3-6-2.19-11.72-5.25-17.7-7.58a98,98,0,0,0-31.37-6.41,102.56,102.56,0,0,0-31.95,3.67c-10.31,2.88-19.68,7.63-28.88,13-.85.5,1.87.74,1.67.71,1.11.14,2.22.25,3.33.34A5.35,5.35,0,0,0,77.51,142.27Z"/><path class="cls-82" d="M80,140.82a74,74,0,0,1,20.71-10.27A91.26,91.26,0,0,1,116,127a95.91,95.91,0,0,1,31.26.75,84.47,84.47,0,0,1,26.25,9.55,80.68,80.68,0,0,0,8.1,4.46,51.16,51.16,0,0,0,11.48,4c14.27,3.11,28.49-3.16,39.66-11.76,15.31-11.81,25.35-28.45,35.27-44.7.4-.66-1.24-.14-1.2-.15-.68.19-2.54.51-3,1.19-10,16.28-20.17,32.88-36,44.1-6.82,4.84-14.62,8.65-23,9.86a36.86,36.86,0,0,1-10.54.06l-9.21-2.46q-3.31-1.34-6.49-2.94c-2.76-1.34-5.41-2.89-8.09-4.39a35.65,35.65,0,0,0-6-2.72A97.34,97.34,0,0,0,97.48,130c-2.44.83-5.33,2-7.68,3a106.28,106.28,0,0,0-13.51,7.54c-.64.4,1.07.53.95.52A5.48,5.48,0,0,0,80,140.82Z"/><path class="cls-83" d="M76.75,144.15,83.57,140a73.9,73.9,0,0,1,10.89-4.91,45.23,45.23,0,0,1,7.52-2.53A70,70,0,0,1,113.53,130l-.36.05,8.19-.93-.37,0,8.23-.27h-.37l8.22.38-.37,0a96.51,96.51,0,0,1,15.46,2.58,70.48,70.48,0,0,1,11.17,3.66,37.24,37.24,0,0,1,7.74,3.58c1.42.79,2.85,1.56,4.3,2.29,9,4.65,18.26,8.18,28.55,6.79,11.54-1.55,21.92-7.89,30.62-15.34,12.77-11,21.63-25.5,30.46-39.6a1.67,1.67,0,0,0-1.22-.26c-1.53,0-3.06,0-4.59.07s-3.05.11-4.58.22a1.68,1.68,0,0,0-1.2.33c-5.16,7.4-10.31,14.91-16.41,21.59a79.82,79.82,0,0,1-19.64,15.78,51.82,51.82,0,0,1-18.9,6.34,29.14,29.14,0,0,1-9.86-.08,108.13,108.13,0,0,1-11.45-3c-6.25-2.1-12.34-4.63-18.64-6.58a106.85,106.85,0,0,0-24-4.63A108.5,108.5,0,0,0,98,126.59C86.41,129.76,75.63,135,65.15,140.9a1.8,1.8,0,0,0,1.14.62c1.51.49,3,.95,4.56,1.37s3.06.84,4.6,1.21A1.77,1.77,0,0,0,76.75,144.15Z"/><path d="M258.93,144.17q-1.6,7.94-3.19,15.88c-.56,2.78-1.29,5.84-3.63,7.43-4.58,3.11-12.58-1.13-15.55,3.53-1.73,2.72-.11,6.69-1.95,9.34a8.35,8.35,0,0,1-3.7,2.54c-4.55,2-9.18,4.1-14.13,4.71s-10.34-.43-13.92-3.9c-1.73-1.67-4.24-4-6-2.4a4.13,4.13,0,0,0-1,2q-2.54,8.63-5.08,17.24c-1.21,4.13-2,9.55,1.63,11.88,2,1.26,4.48,1,6.79.74l18.18-2.26a4.55,4.55,0,0,0,3.2-1.29c1.39-1.78-.39-4.4.15-6.59.74-3,5-3.23,8-2.35s6.61,2.06,8.84-.1c1.58-1.51,1.6-4,2-6.11s2-4.57,4.18-4.18a11.82,11.82,0,0,1,1.87.72c4,1.45,7.35-3,10.71-5.6A14.32,14.32,0,0,1,275,187a47.42,47.42,0,0,0-.07-36.23L288,153.41a3.65,3.65,0,0,0,2.17,0c1.42-.6,1.5-2.52,1.62-4.06.37-4.88,3.32-9.12,5.11-13.68a29.93,29.93,0,0,0,.62-20l-1.24-1.43a3.39,3.39,0,0,1,2.16-1,3.43,3.43,0,0,1,2.24,1.59,219.37,219.37,0,0,0,39.91,38.48,34.37,34.37,0,0,1,6.57,5.75c4.39,5.47,4.76,13.18,8.3,19.24l.73,1.21q23,22.75,43.92,47.52l.29.26c-1.34,1.46-2.67,2.92-4,4.37l-.55,2.37c-.48,2.07,1.52,4,3.62,4.33s4.15-.67,6-1.69,3.73-2.17,5.84-2.38c1.81-.19,3.87.29,5.29-.85s1.41-3.23.85-4.91-1.58-3.2-1.92-4.93.3-3.89,2-4.41l.76-.94a63.83,63.83,0,0,1,10.27,10.83,37.6,37.6,0,0,1,7.06,14.51l-1,1.52H.55L.18,244A97.85,97.85,0,0,1,4,233.8l1.56.68A149.21,149.21,0,0,0,27.37,221c-1.11-1.9-4.53-1.31-5.48-3.29a4,4,0,0,1-.06-2.46l1.59-8.52-1.48-.43a16.53,16.53,0,0,1,6.14-4c7.14-2.38,14.6,2.22,20.46,6.94l.86.43q3.59-7.19,7.38-14.29l.09,0,15.75,12.21c.8.62,1.93,1.25,2.73.63A2.37,2.37,0,0,0,76,207c.9-3.49,1.81-7.13,1-10.65-.95-4.34-4.32-7.8-5.55-12.07a1.91,1.91,0,0,1-.06-1.13c.52-1.44,3.3-.35,4-1.72a2.15,2.15,0,0,0,.14-.91q.06-9.06.1-18.14,2.46-4,5-8a2.31,2.31,0,0,1,4-.76,220.21,220.21,0,0,1,21,16.25l2.38,1.7q5.48-7.71,11.26-15.19l1.09.85a30.34,30.34,0,0,0,1.86,11.4l8.29-5.2,3.12,3.93q9.31-8.9,18.24-18.16a8.23,8.23,0,0,0-5.12-1.39,56.34,56.34,0,0,1,9.94-17.3c1.1,1.38,3.3.37,4.65-.76a53.79,53.79,0,0,0,15.7-22.06c2.69,4,8.85,4.24,13,1.8s6.81-6.77,9.28-10.92l1.58-1.7a516.73,516.73,0,0,0,58,47.31Zm59.57,69.54a60.63,60.63,0,0,0,11,10.63,2.76,2.76,0,0,0,2.34.77,2.7,2.7,0,0,0,1.2-1,169.35,169.35,0,0,0,12.58-17.19,3.16,3.16,0,0,0,.71-2.16c-.28-1.54-2.38-1.74-3.94-1.59-3.71.35-7.44.54-11.17.56a3.17,3.17,0,0,1-1.83-.36,3.24,3.24,0,0,1-1-1.45,172.15,172.15,0,0,1-7.32-20.8q-1.44,16.05-2.1,32.16Z"/><path class="cls-84" d="M418.25,218.27l-.76.94c-1.69.52-2.33,2.67-2,4.41s1.36,3.26,1.92,4.93.53,3.8-.85,4.91-3.48.66-5.29.85c-2.11.21-4,1.36-5.84,2.38s-3.91,2-6,1.69-4.1-2.26-3.62-4.33l.55-2.37c1.34-1.45,2.67-2.91,4-4.37l10.87-11.85a2,2,0,0,1,3.22-.12C415.76,216.27,417,217.24,418.25,218.27Z"/><path class="cls-84" d="M346.35,204.78a3.16,3.16,0,0,1-.71,2.16,169.35,169.35,0,0,1-12.58,17.19,2.7,2.7,0,0,1-1.2,1,2.76,2.76,0,0,1-2.34-.77,60.63,60.63,0,0,1-11-10.63l.52-.41q.66-16.1,2.1-32.16a172.15,172.15,0,0,0,7.32,20.8,3.24,3.24,0,0,0,1,1.45,3.17,3.17,0,0,0,1.83.36c3.73,0,7.46-.21,11.17-.56C344,203,346.07,203.24,346.35,204.78Z"/><path class="cls-84" d="M258.93,144.16l37.32-29.9,1.24,1.43a29.93,29.93,0,0,1-.62,20c-1.79,4.56-4.74,8.8-5.11,13.68-.12,1.54-.2,3.46-1.62,4.06a3.65,3.65,0,0,1-2.17,0l-13.09-2.67A47.42,47.42,0,0,1,275,187a14.32,14.32,0,0,0-18.67-1.61c-3.36,2.59-6.72,7-10.71,5.6a11.82,11.82,0,0,0-1.87-.72c-2.15-.39-3.75,2-4.18,4.18s-.45,4.6-2,6.11c-2.23,2.16-5.86,1-8.84.1s-7.21-.67-8,2.35c-.54,2.19,1.24,4.81-.15,6.59a4.55,4.55,0,0,1-3.2,1.29l-18.18,2.26c-2.31.28-4.83.52-6.79-.74-3.62-2.33-2.84-7.75-1.63-11.88q2.55-8.62,5.08-17.24a4.13,4.13,0,0,1,1-2c1.79-1.61,4.3.73,6,2.4,3.58,3.47,9,4.51,13.92,3.9s9.58-2.67,14.13-4.71a8.35,8.35,0,0,0,3.7-2.54c1.84-2.65.22-6.62,1.95-9.34,3-4.66,11-.42,15.55-3.53,2.34-1.59,3.07-4.65,3.63-7.43q1.59-7.94,3.19-15.88Z"/><path class="cls-84" d="M200.93,96.85l-1.58,1.7c-2.47,4.15-5.12,8.47-9.28,10.92s-10.33,2.21-13-1.8a53.79,53.79,0,0,1-15.7,22.06c-1.35,1.13-3.55,2.14-4.65.76a56.34,56.34,0,0,0-9.94,17.3,8.23,8.23,0,0,1,5.12,1.39q-8.92,9.25-18.24,18.16l-3.12-3.93-8.29,5.2a30.34,30.34,0,0,1-1.86-11.4l-1.09-.85a472.82,472.82,0,0,1,68.47-71.6l.62-.18Q194.55,90.82,200.93,96.85Z"/><path class="cls-84" d="M77.07,196.32c.77,3.52-.14,7.16-1,10.65a2.37,2.37,0,0,1-.68,1.32c-.8.62-1.93,0-2.73-.63L56.87,195.45l-.09,0q8.94-16.82,18.89-33.05,0,9.08-.1,18.14a2.15,2.15,0,0,1-.14.91c-.67,1.37-3.45.28-4,1.72a1.91,1.91,0,0,0,.06,1.13C72.75,188.52,76.12,192,77.07,196.32Z"/><path class="cls-84" d="M21.89,217.73c.95,2,4.37,1.39,5.48,3.29A149.21,149.21,0,0,1,5.58,234.48L4,233.8a101.2,101.2,0,0,1,14.9-24.16,41.11,41.11,0,0,1,3-3.32l1.48.43-1.59,8.52A4,4,0,0,0,21.89,217.73Z"/><path class="cls-85" d="M4,233.8a101.2,101.2,0,0,1,14.9-24.16,41.11,41.11,0,0,1,3-3.32"/><path class="cls-85" d="M56.78,195.4q8.94-16.82,18.89-33.05"/><path class="cls-85" d="M49.4,209.69c-.07.13-.14.26-.2.39"/><path class="cls-85" d="M119.28,156.36a472.82,472.82,0,0,1,68.47-71.6"/><path class="cls-85" d="M4,233.8A97.85,97.85,0,0,0,.18,244l.37,1.13h434l1-1.52a37.6,37.6,0,0,0-7.06-14.51,63.83,63.83,0,0,0-10.27-10.83l-.76.94c-1.69.52-2.33,2.67-2,4.41s1.36,3.26,1.92,4.93.53,3.8-.85,4.91-3.48.66-5.29.85c-2.11.21-4,1.36-5.84,2.38s-3.91,2-6,1.69-4.1-2.26-3.62-4.33l.55-2.37c1.34-1.45,2.67-2.91,4-4.37l-.29-.26q-20.88-24.74-43.92-47.52l-.73-1.21c-3.54-6.06-3.91-13.77-8.3-19.24a34.37,34.37,0,0,0-6.57-5.75,219.37,219.37,0,0,1-39.91-38.48,3.43,3.43,0,0,0-2.24-1.59,3.39,3.39,0,0,0-2.16,1l1.24,1.43a29.93,29.93,0,0,1-.62,20c-1.79,4.56-4.74,8.8-5.11,13.68-.12,1.54-.2,3.46-1.62,4.06a3.65,3.65,0,0,1-2.17,0l-13.09-2.67A47.42,47.42,0,0,1,275,187a14.32,14.32,0,0,0-18.67-1.61c-3.36,2.59-6.72,7-10.71,5.6a11.82,11.82,0,0,0-1.87-.72c-2.15-.39-3.75,2-4.18,4.18s-.45,4.6-2,6.11c-2.23,2.16-5.86,1-8.84.1s-7.21-.67-8,2.35c-.54,2.19,1.24,4.81-.15,6.59a4.55,4.55,0,0,1-3.2,1.29l-18.18,2.26c-2.31.28-4.83.52-6.79-.74-3.62-2.33-2.84-7.75-1.63-11.88q2.55-8.62,5.08-17.24a4.13,4.13,0,0,1,1-2c1.79-1.61,4.3.73,6,2.4,3.58,3.47,9,4.51,13.92,3.9s9.58-2.67,14.13-4.71a8.35,8.35,0,0,0,3.7-2.54c1.84-2.65.22-6.62,1.95-9.34,3-4.66,11-.42,15.55-3.53,2.34-1.59,3.07-4.65,3.63-7.43q1.59-7.94,3.19-15.88h0a516.73,516.73,0,0,1-58-47.31l-1.58,1.7c-2.47,4.15-5.12,8.47-9.28,10.92s-10.33,2.21-13-1.8a53.79,53.79,0,0,1-15.7,22.06c-1.35,1.13-3.55,2.14-4.65.76a56.34,56.34,0,0,0-9.94,17.3,8.23,8.23,0,0,1,5.12,1.39q-8.92,9.25-18.24,18.16l-3.12-3.93-8.29,5.2a30.34,30.34,0,0,1-1.86-11.4l-1.09-.85q-5.77,7.48-11.26,15.19l-2.38-1.7a220.21,220.21,0,0,0-21-16.25,2.31,2.31,0,0,0-4,.76q-2.52,4-5,8,0,9.08-.1,18.14a2.15,2.15,0,0,1-.14.91c-.67,1.37-3.45.28-4,1.72a1.91,1.91,0,0,0,.06,1.13c1.23,4.27,4.6,7.73,5.55,12.07.77,3.52-.14,7.16-1,10.65a2.37,2.37,0,0,1-.68,1.32c-.8.62-1.93,0-2.73-.63L56.87,195.45l-.09,0Q53,202.5,49.4,209.69l-.86-.43c-5.86-4.72-13.32-9.32-20.46-6.94a16.53,16.53,0,0,0-6.14,4l1.48.43-1.59,8.52a4,4,0,0,0,.06,2.46c.95,2,4.37,1.39,5.48,3.29A149.21,149.21,0,0,1,5.58,234.48Z"/><path class="cls-85" d="M345.64,206.94a169.35,169.35,0,0,1-12.58,17.19,2.7,2.7,0,0,1-1.2,1,2.76,2.76,0,0,1-2.34-.77,60.63,60.63,0,0,1-11-10.63l.52-.41q.66-16.1,2.1-32.16a172.15,172.15,0,0,0,7.32,20.8,3.24,3.24,0,0,0,1,1.45,3.17,3.17,0,0,0,1.83.36c3.73,0,7.46-.21,11.17-.56,1.56-.15,3.66.05,3.94,1.59A3.16,3.16,0,0,1,345.64,206.94Z"/><path class="cls-85" d="M108,171.55l-.1.14"/><path class="cls-85" d="M259.91,144.85l-1-.69"/><path class="cls-85" d="M200.93,96.85q-6.37-6-12.56-12.27"/><path class="cls-85" d="M296.25,114.26l-37.32,29.9"/><path class="cls-85" d="M258.93,144.17l-.32.25"/><path class="cls-85" d="M400.37,227.31l10.87-11.85a2,2,0,0,1,3.22-.12c1.3.93,2.56,1.9,3.79,2.93"/><path class="cls-85" d="M75.68,161.25c0,.37,0,.73,0,1.1"/><path class="cls-85" d="M259,144l0,.16"/><path class="cls-85" d="M318.5,213.71c-.4-.47-.77-1-1.14-1.44"/><polyline class="cls-85" points="187.36 85.08 188.31 84.14 188.31 84.88"/></svg>